<svg width="413" height="87" viewBox="0 0 413 87" fill="none" xmlns="http://www.w3.org/2000/svg">
    <path d="M72.6274 73.6274C66.6263 79.6286 58.487 83 50 83C41.5131 83 33.3737 79.6286 27.3726 73.6274C21.3714 67.6263 18 59.487 18 51C18 42.5131 21.3714 34.3737 27.3726 28.3726C33.3737 22.3714 41.5131 19 50 19C58.487 19 66.6263 22.3714 72.6274 28.3726C78.6286 34.3737 82 42.5131 82 51C82 59.487 78.6286 67.6263 72.6274 73.6274Z" stroke="#1CB0F6" stroke-width="8"/>
    <circle cx="34.5" cy="34.5" r="30.5" fill="white" stroke="#1CB0F6" stroke-width="8"/>
    <circle cx="63.5" cy="42.5" r="27" fill="#1CB0F6" stroke="#1CB0F6" stroke-width="5"/>
    <path opacity="0.8" d="M44.9152 41.3199C44.4511 41.3252 43.9927 41.2163 43.5806 41.0028C43.1684 40.7894 42.815 40.4778 42.5516 40.0956C42.2882 39.7134 42.1227 39.2723 42.0699 38.8112C42.0171 38.35 42.0784 37.8829 42.2486 37.451C43.7708 33.5856 46.0447 30.0606 48.9386 27.08C51.8326 24.0994 55.289 21.7226 59.1079 20.087C59.7965 19.8143 60.5645 19.8215 61.2479 20.1071C61.9313 20.3927 62.476 20.9341 62.7658 21.6158C63.0556 22.2974 63.0675 23.0653 62.7989 23.7556C62.5304 24.4459 62.0027 25.0039 61.3284 25.3105C58.2067 26.6495 55.3817 28.5948 53.0174 31.0338C50.6531 33.4727 48.7966 36.3568 47.5553 39.5187C47.3478 40.0499 46.9848 40.506 46.5137 40.8274C46.0426 41.1488 45.4855 41.3205 44.9152 41.3199Z" fill="white"/>
    <path d="M100 71.4L108.06 29.48C113.093 29.0533 117.233 28.84 120.48 28.84C123.72 28.84 126.387 28.98 128.48 29.26C130.567 29.5333 132.317 30.0333 133.73 30.76C136.543 32.1267 137.95 34.6867 137.95 38.44C137.95 40.6133 137.01 42.62 135.13 44.46C133.383 46.12 131.55 47.1433 129.63 47.53C131.677 47.87 133.427 48.8067 134.88 50.34C136.413 51.9667 137.18 54.0367 137.18 56.55C137.18 61.4167 135.367 65.2667 131.74 68.1C128.113 70.94 122.737 72.36 115.61 72.36C110.703 72.36 105.5 72.04 100 71.4ZM117.41 51.11L114.21 67.69C114.59 67.73 114.823 67.75 114.91 67.75H115.49C118.983 67.75 121.477 66.6 122.97 64.3C124.083 62.5067 124.64 59.9667 124.64 56.68C124.64 54.9333 124.073 53.59 122.94 52.65C121.813 51.71 119.97 51.1967 117.41 51.11ZM127.13 38.5C127.13 34.96 125.423 33.19 122.01 33.19H121.44C121.267 33.19 121.053 33.2133 120.8 33.26L118.24 46.76H118.88C124.38 46.6333 127.13 43.88 127.13 38.5ZM167.33 60.9C168.397 61.6267 168.93 62.79 168.93 64.39C168.93 65.99 168.523 67.3033 167.71 68.33C166.897 69.35 165.83 70.2033 164.51 70.89C161.777 72.2967 158.94 73 156 73C153.053 73 150.717 72.68 148.99 72.04C147.263 71.4 145.823 70.4833 144.67 69.29C142.41 67.03 141.28 63.83 141.28 59.69C141.28 53.2433 143.03 48.06 146.53 44.14C150.283 39.9133 155.423 37.8 161.95 37.8C166.003 37.8 169.033 38.6533 171.04 40.36C172.533 41.64 173.28 43.3267 173.28 45.42C173.28 52.9267 166.793 56.68 153.82 56.68C153.653 57.7867 153.57 58.81 153.57 59.75C153.57 61.7167 154.007 63.0733 154.88 63.82C155.753 64.5667 157 64.94 158.62 64.94C160.24 64.94 161.917 64.5667 163.65 63.82C165.377 63.0733 166.603 62.1 167.33 60.9ZM154.27 53.93C157.297 53.93 159.687 52.99 161.44 51.11C163.187 49.3167 164.06 46.9933 164.06 44.14C164.06 43.1533 163.88 42.3933 163.52 41.86C163.153 41.3267 162.61 41.06 161.89 41.06C161.163 41.06 160.49 41.2 159.87 41.48C159.25 41.76 158.62 42.3667 157.98 43.3C156.4 45.4333 155.163 48.9767 154.27 53.93ZM202.53 73C197.363 73 194.78 70.9933 194.78 66.98C194.827 65.8733 195.02 64.38 195.36 62.5L196.51 56.62C197.663 51.0733 198.24 47.68 198.24 46.44C198.24 43.9667 197.513 42.73 196.06 42.73C193.627 42.73 191.77 45.9067 190.49 52.26L186.72 71.72L173.85 73L180.51 39.02L191.01 37.8L189.98 44.07C191.987 39.89 196.063 37.8 202.21 37.8C205.197 37.8 207.317 38.43 208.57 39.69C209.83 40.95 210.46 42.9867 210.46 45.8C210.46 48.4467 209.777 52.8633 208.41 59.05C207.77 61.8233 207.45 63.7333 207.45 64.78C207.45 65.82 207.74 66.64 208.32 67.24C208.893 67.84 209.607 68.18 210.46 68.26C210.033 69.7133 209.083 70.8667 207.61 71.72C206.143 72.5733 204.45 73 202.53 73ZM241.5 60.9C242.567 61.6267 243.1 62.79 243.1 64.39C243.1 65.99 242.697 67.3033 241.89 68.33C241.077 69.35 240.01 70.2033 238.69 70.89C235.957 72.2967 233.117 73 230.17 73C227.23 73 224.897 72.68 223.17 72.04C221.437 71.4 219.997 70.4833 218.85 69.29C216.583 67.03 215.45 63.83 215.45 59.69C215.45 53.2433 217.2 48.06 220.7 44.14C224.453 39.9133 229.597 37.8 236.13 37.8C240.183 37.8 243.21 38.6533 245.21 40.36C246.703 41.64 247.45 43.3267 247.45 45.42C247.45 52.9267 240.967 56.68 228 56.68C227.827 57.7867 227.74 58.81 227.74 59.75C227.74 61.7167 228.177 63.0733 229.05 63.82C229.93 64.5667 231.18 64.94 232.8 64.94C234.42 64.94 236.093 64.5667 237.82 63.82C239.547 63.0733 240.773 62.1 241.5 60.9ZM228.45 53.93C231.477 53.93 233.863 52.99 235.61 51.11C237.363 49.3167 238.24 46.9933 238.24 44.14C238.24 43.1533 238.057 42.3933 237.69 41.86C237.33 41.3267 236.787 41.06 236.06 41.06C235.333 41.06 234.663 41.2 234.05 41.48C233.43 41.76 232.8 42.3667 232.16 43.3C230.58 45.4333 229.343 48.9767 228.45 53.93ZM274.59 34.6C275.19 33.5733 275.49 32.5067 275.49 31.4C275.49 29.44 274.89 28.46 273.69 28.46C271.857 28.46 270.557 30.3367 269.79 34.09L268.83 39.08H274.65L274.27 41.96H268.25L262.49 71.72L249.57 73L255.71 41.96H251.17L251.74 39.08H256.22L257.57 34.02C258.337 30.9067 260.363 28.6267 263.65 27.18C266.037 26.1533 269.237 25.64 273.25 25.64C277.257 25.64 280.157 26.1533 281.95 27.18C283.743 28.2 284.64 29.3933 284.64 30.76C284.64 32.1267 284.107 33.2367 283.04 34.09C281.973 34.9433 280.843 35.37 279.65 35.37C277.303 35.37 275.617 35.1133 274.59 34.6ZM294.94 68.2C293.62 71.4 290.847 73 286.62 73C284.447 73 282.677 72.2533 281.31 70.76C280.157 69.44 279.58 68.1167 279.58 66.79C279.58 63.3367 280.37 58.24 281.95 51.5L284.32 39.08L297.31 37.8L293.41 58.02C292.683 61.18 292.32 63.3133 292.32 64.42C292.32 66.8533 293.193 68.1133 294.94 68.2ZM285.47 30.18C285.47 28.52 286.163 27.24 287.55 26.34C288.937 25.4467 290.633 25 292.64 25C294.647 25 296.257 25.4467 297.47 26.34C298.683 27.24 299.29 28.52 299.29 30.18C299.29 31.8467 298.62 33.1067 297.28 33.96C295.933 34.8133 294.257 35.24 292.25 35.24C290.25 35.24 288.62 34.8133 287.36 33.96C286.1 33.1067 285.47 31.8467 285.47 30.18ZM301.41 65.32C301.41 64.1667 301.707 62.14 302.3 59.24L305.69 41.96H301.92L302.17 40.04C307.29 38.5067 312.327 35.86 317.28 32.1H320.35L318.81 39.08H323.81L323.23 41.96H318.3L315.04 59.24C314.487 61.8867 314.21 63.6567 314.21 64.55C314.21 66.5967 315.103 67.8333 316.89 68.26C316.463 69.7133 315.483 70.8667 313.95 71.72C312.417 72.5733 310.56 73 308.38 73C306.207 73 304.5 72.3167 303.26 70.95C302.027 69.5833 301.41 67.7067 301.41 65.32ZM325.85 61.35C324.49 60.37 323.81 58.94 323.81 57.06C323.81 56.04 324.063 55.1133 324.57 54.28C325.083 53.4467 325.853 52.9667 326.88 52.84H339.49C340.897 52.84 341.813 52.4133 342.24 51.56C342.92 51.9467 343.41 52.5433 343.71 53.35C344.01 54.1633 344.16 54.9967 344.16 55.85C344.16 56.7033 343.83 57.5467 343.17 58.38C342.503 59.2067 341.68 59.6633 340.7 59.75H328.99C328.097 59.75 327.437 59.89 327.01 60.17C326.583 60.4433 326.197 60.8367 325.85 61.35ZM349.79 62.25C349.79 60.5833 350.003 58.6833 350.43 56.55L355.61 29.48H369.76L364.64 56.74C364.253 58.7467 364.06 60.4867 364.06 61.96C364.06 63.4333 364.37 64.5533 364.99 65.32C365.61 66.0867 366.497 66.47 367.65 66.47C368.797 66.47 369.733 66.32 370.46 66.02C371.187 65.7267 371.85 65.2167 372.45 64.49C373.597 63.0367 374.533 60.4533 375.26 56.74L380.45 29.48H390.11L384.99 56.68C383.797 62.74 381.557 66.9867 378.27 69.42C375.07 71.8067 370.313 73 364 73C359.26 73 355.633 71.9767 353.12 69.93C350.9 68.1367 349.79 65.5767 349.79 62.25ZM404.64 71.72H390.69L398.81 29.48H412.89L404.64 71.72Z" fill="#1CB0F6"/>
</svg>
