<svg width="10" height="16" viewBox="0 0 10 16" fill="none" xmlns="http://www.w3.org/2000/svg">
    <path d="M6.06 7.93002L1.06 12.93C0.757651 13.2324 0.587769 13.6424 0.587769 14.07C0.587769 14.4976 0.757651 14.9077 1.06 15.21C1.36234 15.5124 1.77243 15.6822 2.20001 15.6822C2.6276 15.6822 3.03768 15.5124 3.34003 15.21L9.46997 9.08002C9.77042 8.77667 9.93903 8.36697 9.93903 7.94002C9.93903 7.51306 9.77042 7.10337 9.46997 6.80002L3.34003 0.670013C3.03768 0.367667 2.6276 0.197815 2.20001 0.197815C1.77243 0.197815 1.36234 0.367667 1.06 0.670013C0.757651 0.97236 0.587769 1.38243 0.587769 1.81001C0.587769 2.2376 0.757651 2.64767 1.06 2.95001L6.06 7.93002Z" fill="#CBCBCB"/>
</svg>
