<svg width="20" height="20" viewBox="0 0 20 20" fill="none" xmlns="http://www.w3.org/2000/svg">
    <path d="M10 20C15.5228 20 20 15.5228 20 10C20 4.47715 15.5228 0 10 0C4.47715 0 0 4.47715 0 10C0 15.5228 4.47715 20 10 20Z" fill="#99CC00"/>
    <path d="M15.46 6.60001C15.3669 6.50476 15.2557 6.42909 15.1329 6.37742C15.0101 6.32575 14.8782 6.29913 14.745 6.29913C14.6118 6.29913 14.4799 6.32575 14.3571 6.37742C14.2344 6.42909 14.1231 6.50476 14.03 6.60001L8.66 12L6.35 9.69001C6.16037 9.50038 5.90318 9.39384 5.635 9.39384C5.36683 9.39384 5.10963 9.50038 4.92 9.69001C4.73037 9.87964 4.62384 10.1368 4.62384 10.405C4.62384 10.6732 4.73037 10.9304 4.92 11.12L7.73 13.93C7.77583 14.0257 7.83659 14.1134 7.91 14.19C8.00313 14.2853 8.11436 14.3609 8.23714 14.4126C8.35992 14.4643 8.49179 14.4909 8.625 14.4909C8.75821 14.4909 8.89008 14.4643 9.01287 14.4126C9.13565 14.3609 9.24687 14.2853 9.34 14.19L15.46 8.00001C15.6432 7.81308 15.7459 7.56176 15.7459 7.30001C15.7459 7.03826 15.6432 6.78693 15.46 6.60001Z" fill="white"/>
</svg>
