<svg width="315" height="315" viewBox="0 0 315 315" fill="none" xmlns="http://www.w3.org/2000/svg">
    <path d="M98.4375 189.812L47.5576 212.643C36.7295 217.565 36.7295 225.625 47.5576 230.547L138.612 272.075C149.004 276.806 166.107 276.806 176.498 272.075L267.553 230.547C278.381 225.625 278.381 217.565 267.553 212.643L218.371 188.975M267.504 84.687L175.612 42.7896C165.652 38.2368 149.348 38.2368 139.387 42.7896L47.5576 84.687C36.7295 89.6089 36.7295 97.6623 47.5576 102.584L138.612 144.113C149.004 148.85 166.107 148.85 176.498 144.113L267.553 102.584C278.332 97.6623 278.332 89.6027 267.504 84.687Z" stroke="#D4D4D4" stroke-width="12" stroke-linecap="round" stroke-linejoin="round"/>
    <path d="M98.4375 125.803L47.4961 148.665C36.668 153.587 36.668 161.647 47.4961 166.569L138.551 208.091C148.942 212.828 166.046 212.828 176.437 208.091L267.492 166.569C278.381 161.647 278.381 153.587 267.553 148.665L216.563 125.803" stroke="#D4D4D4" stroke-width="12" stroke-linecap="round" stroke-linejoin="round"/>
</svg>
