<svg width="24" height="30" viewBox="0 0 24 30" fill="none" xmlns="http://www.w3.org/2000/svg">
    <path d="M3.12 6.36L9.595 2.452C10.9892 1.61048 12.7348 1.61048 14.129 2.452L20.604 6.359C21.9201 7.15339 22.7244 8.57873 22.724 10.116V19.782C22.724 21.3189 21.9198 22.7438 20.604 23.538L14.129 27.445C12.7348 28.2865 10.9892 28.2865 9.595 27.445L3.12 23.538C1.80419 22.7438 1 21.3189 1 19.782V10.116C1 8.578 1.804 7.154 3.12 6.359V6.36Z" fill="#FC4848" stroke="white" stroke-width="2"/>
    <path opacity="0.793" d="M11.89 6.273V9.438C11.89 9.816 11.692 10.166 11.37 10.362L8.422 12.145C8.05578 12.3664 7.59336 12.3507 7.243 12.105L4.857 10.433C4.55901 10.2242 4.38621 9.87935 4.39729 9.51565C4.40837 9.15196 4.60185 8.81829 4.912 8.628L10.245 5.352C10.5782 5.14746 10.9959 5.13898 11.3372 5.32982C11.6784 5.52066 11.8898 5.88103 11.89 6.272V6.273Z" fill="white"/>
</svg>
