<svg width="32" height="31" viewBox="0 0 32 31" fill="none" xmlns="http://www.w3.org/2000/svg">
    <path d="M23.91 15.44L30.24 9.11001C31.2044 8.10135 31.7356 6.75523 31.72 5.35981C31.7043 3.96439 31.143 2.63054 30.1563 1.64376C29.1695 0.656986 27.8356 0.0957019 26.4402 0.0800483C25.0448 0.0643947 23.6987 0.595615 22.69 1.56001L16.36 7.89001L10 1.56001C8.99135 0.595615 7.64524 0.0643947 6.24982 0.0800483C4.85439 0.0957019 3.52054 0.656986 2.53377 1.64376C1.54699 2.63054 0.985717 3.96439 0.970063 5.35981C0.954409 6.75523 1.48562 8.10135 2.45001 9.11001L8.78001 15.44L2.45001 21.77C1.48562 22.7787 0.954409 24.1248 0.970063 25.5202C0.985717 26.9156 1.54699 28.2495 2.53377 29.2363C3.52054 30.223 4.85439 30.7843 6.24982 30.8C7.64524 30.8156 8.99135 30.2844 10 29.32L16.33 22.99L22.66 29.32C23.6687 30.2844 25.0148 30.8156 26.4102 30.8C27.8056 30.7843 29.1395 30.223 30.1263 29.2363C31.113 28.2495 31.6743 26.9156 31.69 25.5202C31.7056 24.1248 31.1744 22.7787 30.21 21.77L23.91 15.44Z" fill="#EC0B1B"/>
</svg>
