<svg width="18" height="17" viewBox="0 0 18 17" fill="none" xmlns="http://www.w3.org/2000/svg">
    <path d="M16.6586 14.57L13.2686 11.09C14.0393 9.89772 14.4522 8.50963 14.4586 7.08999C14.431 5.66589 13.9835 4.28168 13.172 3.11106C12.3605 1.94044 11.2213 1.03559 9.89745 0.510077C8.57357 -0.0154382 7.12398 -0.138205 5.73058 0.157187C4.33718 0.45258 3.06207 1.15297 2.0653 2.17045C1.06853 3.18793 0.39454 4.47716 0.127858 5.87633C-0.138824 7.27551 0.0137117 8.72229 0.566335 10.0351C1.11896 11.3479 2.04701 12.4682 3.23406 13.2554C4.42111 14.0426 5.81427 14.4617 7.23864 14.46C8.8185 14.4597 10.353 13.9318 11.5986 12.96L14.8986 16.34C15.0115 16.4562 15.1463 16.549 15.2951 16.6132C15.4439 16.6773 15.6039 16.7116 15.7659 16.7139C15.928 16.7162 16.0889 16.6866 16.2395 16.6267C16.3901 16.5669 16.5274 16.4779 16.6436 16.365C16.7598 16.2521 16.8527 16.1173 16.9169 15.9685C16.981 15.8197 17.0152 15.6597 17.0175 15.4977C17.0198 15.3356 16.9902 15.1747 16.9303 15.0241C16.8705 14.8735 16.7816 14.7362 16.6686 14.62L16.6586 14.57ZM7.23864 11.95C6.26127 11.9799 5.29724 11.7172 4.47008 11.1957C3.64292 10.6743 2.99032 9.91767 2.59588 9.02294C2.20143 8.1282 2.08311 7.13607 2.25609 6.17367C2.42908 5.21127 2.88543 4.32244 3.56676 3.62107C4.2481 2.9197 5.12333 2.43773 6.08031 2.23693C7.0373 2.03613 8.03249 2.12564 8.93828 2.49399C9.84407 2.86235 10.6192 3.49277 11.1645 4.30447C11.7097 5.11617 12.0002 6.07217 11.9986 7.04999C12.0147 8.33026 11.5227 9.56471 10.6306 10.4831C9.73847 11.4015 8.51883 11.9289 7.23864 11.95Z" fill="#777777"/>
</svg>
