<svg width="14" height="9" viewBox="0 0 14 9" fill="none" xmlns="http://www.w3.org/2000/svg">
    <path d="M13.42 1.44999C13.234 1.2727 12.9869 1.17381 12.73 1.17381C12.473 1.17381 12.226 1.2727 12.04 1.44999L6.87999 6.61L1.65999 1.39C1.5823 1.25882 1.47566 1.14714 1.3482 1.0635C1.22074 0.979863 1.07584 0.926474 0.924588 0.907413C0.773333 0.888353 0.619722 0.904129 0.475497 0.953533C0.331273 1.00294 0.200253 1.08466 0.0924539 1.19246C-0.0153456 1.30026 -0.0970708 1.43128 -0.146475 1.5755C-0.195879 1.71973 -0.211653 1.87334 -0.192593 2.02459C-0.173532 2.17585 -0.120141 2.32075 -0.0365004 2.44821C0.04714 2.57567 0.158815 2.68231 0.289989 2.76L5.99999 8.45999C6.04366 8.55146 6.10098 8.63576 6.16999 8.70999C6.35597 8.88728 6.60305 8.98619 6.85999 8.98619C7.11693 8.98619 7.36401 8.88728 7.54999 8.70999L13.44 2.82C13.6117 2.632 13.7052 2.3856 13.7015 2.13103C13.6978 1.87646 13.5971 1.63289 13.42 1.44999Z" fill="#B0B0B0"/>
</svg>
