<svg width="17" height="10" viewBox="0 0 17 10" fill="none" xmlns="http://www.w3.org/2000/svg">
    <path d="M8.41998 5.83001L3.16998 0.580012C3.01108 0.423082 2.82283 0.298984 2.61597 0.214808C2.40911 0.130632 2.1877 0.0880262 1.96437 0.0894191C1.74105 0.0908119 1.52019 0.136176 1.31439 0.222926C1.1086 0.309675 0.921909 0.436112 0.764979 0.595011C0.608049 0.753911 0.483951 0.942162 0.399775 1.14902C0.315599 1.35588 0.272993 1.57729 0.274386 1.80062C0.275779 2.02394 0.321143 2.2448 0.407893 2.45059C0.494642 2.65639 0.621079 2.84308 0.779978 3.00001L7.21998 9.44001C7.53862 9.75755 7.97013 9.93585 8.41998 9.93585C8.86983 9.93585 9.30134 9.75755 9.61998 9.44001L16.06 3.00001C16.218 2.84332 16.3435 2.65696 16.4293 2.45164C16.5151 2.24632 16.5595 2.02607 16.56 1.80355C16.5604 1.58102 16.517 1.36059 16.432 1.15491C16.3471 0.949231 16.2223 0.76235 16.065 0.604998C15.9076 0.447647 15.7208 0.322922 15.5151 0.237979C15.3094 0.153036 15.089 0.109545 14.8664 0.110011C14.6439 0.110476 14.4237 0.154892 14.2183 0.240695C14.013 0.326498 13.8267 0.452002 13.67 0.610011L8.41998 5.83001Z" fill="#CBCBCB"/>
</svg>
