<svg width="17" height="10" viewBox="0 0 17 10" fill="none" xmlns="http://www.w3.org/2000/svg">
    <path d="M8.41998 4.09998L13.67 9.34998C13.9931 9.60314 14.3973 9.73005 14.8072 9.70699C15.217 9.68394 15.6044 9.51252 15.8971 9.22472C16.1898 8.93692 16.3678 8.55242 16.3977 8.14303C16.4277 7.73364 16.3076 7.32734 16.06 6.99998L9.61998 0.559982C9.30134 0.242442 8.86983 0.0641479 8.41998 0.0641479C7.97013 0.0641479 7.53862 0.242442 7.21998 0.559982L0.77998 6.99998C0.465235 7.31737 0.289047 7.74653 0.289982 8.19352C0.290917 8.64051 0.468899 9.06892 0.784969 9.38499C1.10104 9.70107 1.52945 9.87905 1.97644 9.87998C2.42343 9.88092 2.85259 9.70473 3.16998 9.38998L8.41998 4.09998Z" fill="#CBCBCB"/>
</svg>
