<svg width="44" height="36" viewBox="0 0 44 36" fill="none" xmlns="http://www.w3.org/2000/svg">
    <path d="M16 0C7.2 0 0 6 0 13.5C0 17.8 2.3 21.5 6 24L4 30L10.3 26.1C12 26.7 14 27 16 27C24.8 27 32 21 32 13.5C32 6 24.8 0 16 0Z" fill="black" fill-opacity="0.25"/>
    <path d="M18 23C18 16.9 23.8 12 31 12C31.3 12 31.6 12 31.9 12C31.8 11.3 31.6 10.6 31.4 10C31.3 10 31.1 10 31 10C22.7 10 16 15.8 16 23C16 24.4 16.3 25.7 16.7 27C17.4 27 18.1 26.9 18.8 26.8C18.3 25.6 18 24.3 18 23Z" fill="black" fill-opacity="0.05"/>
    <path d="M44 23C44 16.9 38.2 12 31 12C23.8 12 18 16.9 18 23C18 29.1 23.8 34 31 34C32.8 34 34.5 33.7 36 33.2L41 36L39.6 31.2C42.3 29.2 44 26.3 44 23Z" fill="#E5E5E5"/>
    <path d="M12 9C12 10.1 11.1 11 10 11C8.9 11 8 10.1 8 9C8 7.9 8.9 7 10 7C11.1 7 12 7.9 12 9ZM22 7C20.9 7 20 7.9 20 9C20 10.1 20.9 11 22 11C23.1 11 24 10.1 24 9C24 7.9 23.1 7 22 7Z" fill="black" fill-opacity="0.2"/>
    <path d="M28 20.5C28 21.3 27.3 22 26.5 22C25.7 22 25 21.3 25 20.5C25 19.7 25.7 19 26.5 19C27.3 19 28 19.7 28 20.5ZM35.5 19C34.7 19 34 19.7 34 20.5C34 21.3 34.7 22 35.5 22C36.3 22 37 21.3 37 20.5C37 19.7 36.3 19 35.5 19Z" fill="black" fill-opacity="0.2"/>
</svg>
