<svg width="22" height="18" viewBox="0 0 22 18" fill="none" xmlns="http://www.w3.org/2000/svg">
    <path d="M11.14 17.42C11.0473 17.4355 10.9527 17.4355 10.86 17.42C10.7807 17.392 10.7065 17.3515 10.64 17.3C5.90001 13.92 3.64 12.09 2.29 10.56C1.67336 9.9158 1.19475 9.15246 0.88351 8.31677C0.572275 7.48108 0.434975 6.59063 0.480006 5.7V5.65C0.555183 4.15907 1.21632 2.7582 2.31948 1.75244C3.42265 0.746668 4.87847 0.217444 6.36999 0.280001C7.27989 0.273471 8.17986 0.469256 9.00482 0.853198C9.82977 1.23714 10.5591 1.79964 11.14 2.5C11.7209 1.79964 12.4502 1.23714 13.2752 0.853198C14.1001 0.469256 15.0001 0.273471 15.91 0.280001C17.4015 0.217444 18.8573 0.746668 19.9605 1.75244C21.0637 2.7582 21.7248 4.15907 21.8 5.65V5.7C21.8395 6.58166 21.7004 7.46221 21.3911 8.28878C21.0818 9.11534 20.6086 9.87087 20 10.51C18.66 12.05 16.39 13.88 11.65 17.26C11.592 17.3052 11.5281 17.3422 11.46 17.37C11.3574 17.4068 11.2489 17.4237 11.14 17.42Z" fill="#E8E8E8"/>
</svg>
