<svg width="22" height="18" viewBox="0 0 22 18" fill="none" xmlns="http://www.w3.org/2000/svg">
    <path d="M11.0009 17.9878C10.9053 18.0041 10.8078 18.0041 10.7122 17.9878C10.6304 17.9584 10.5539 17.9159 10.4853 17.8619C5.59758 14.3157 3.26712 12.3958 1.87504 10.7906C1.23917 10.1147 0.745643 9.31384 0.4247 8.43707C0.103763 7.5603 -0.0378173 6.62607 0.00861751 5.69166V5.6392C0.086138 4.07498 0.767885 2.60525 1.90543 1.55004C3.04299 0.494829 4.5442 -0.0604108 6.08221 0.00522146C7.02048 -0.00162954 7.9485 0.20378 8.79918 0.606596C9.64985 1.00941 10.4019 1.59956 11.0009 2.33435C11.5999 1.59956 12.352 1.00941 13.2027 0.606596C14.0533 0.20378 14.9814 -0.00162954 15.9196 0.00522146C17.4576 -0.0604108 18.9588 0.494829 20.0964 1.55004C21.234 2.60525 21.9157 4.07498 21.9932 5.6392V5.69166C22.034 6.61666 21.8905 7.5405 21.5716 8.4077C21.2526 9.2749 20.7647 10.0676 20.1371 10.7381C18.7553 12.3538 16.4146 14.2738 11.5268 17.8199C11.467 17.8674 11.4011 17.9062 11.3309 17.9353C11.2251 17.974 11.1132 17.9917 11.0009 17.9878Z" fill="#EC0000"/>
</svg>
