<svg width="20" height="20" viewBox="0 0 20 20" fill="none" xmlns="http://www.w3.org/2000/svg">
    <path d="M19.69 11.09V8.41L17.48 8.11C17.31 7.18276 16.9711 6.29466 16.48 5.49L17.75 3.81L15.86 1.92L14.28 3.12C13.4463 2.53431 12.5048 2.11965 11.51 1.9L11.28 0H8.59998L8.33997 1.85C7.31519 2.05214 6.34217 2.4604 5.47997 3.05L3.99997 1.91L2.09998 3.8L3.27997 5.36C2.75024 6.2058 2.39021 7.14663 2.21997 8.13L0.219971 8.41V11.09L2.37997 11.39C2.60639 12.2772 2.98902 13.117 3.50996 13.87L2.09998 15.7L3.99997 17.59L5.92996 16.13C6.65484 16.5595 7.44539 16.8669 8.26997 17.04L8.60997 19.5H11.29L11.64 17C12.4381 16.8125 13.201 16.4985 13.9 16.07L15.9 17.59L17.79 15.7L16.32 13.75C16.7806 13.0308 17.1186 12.24 17.32 11.41L19.69 11.09ZM9.84998 12.87C9.17356 12.87 8.51234 12.6694 7.94992 12.2936C7.3875 11.9178 6.94916 11.3837 6.69031 10.7588C6.43146 10.1339 6.36372 9.44621 6.49568 8.78279C6.62764 8.11938 6.95338 7.50999 7.43167 7.03169C7.90997 6.5534 8.51934 6.22767 9.18275 6.09571C9.84617 5.96375 10.5338 6.03148 11.1588 6.29033C11.7837 6.54918 12.3178 6.98753 12.6936 7.54995C13.0694 8.11237 13.27 8.77358 13.27 9.45C13.27 10.3553 12.911 11.2237 12.2718 11.8648C11.6326 12.5059 10.7653 12.8674 9.85997 12.87H9.84998Z" fill="#1CAFF6"/>
</svg>
