<svg width="35" height="35" viewBox="0 0 35 35" fill="none" xmlns="http://www.w3.org/2000/svg">
    <path d="M32.6431 27.1664C30.9526 25.7422 30.172 25.3116 27.8379 23.9102C26.8656 23.3275 25.3836 22.8238 24.606 22.8238C24.075 22.8238 23.439 23.2301 23.0495 23.6196C22.0513 24.6178 21.7242 25.867 19.9743 25.867C18.2625 25.867 15.2726 24.1248 13.1272 21.8728C10.8752 19.7274 9.13302 16.7375 9.13302 15.0257C9.13302 13.2758 10.3594 12.9259 11.3576 11.9262C11.7471 11.5382 12.1762 10.9022 12.1762 10.3711C12.1762 9.59361 11.6725 8.1344 11.0898 7.16211C9.6884 4.82647 9.25931 4.0459 7.83359 2.35694C7.35124 1.78482 6.80195 1.52311 6.22679 1.52159C5.2545 1.52007 3.97789 2.00241 3.11362 2.64604C1.81419 3.61529 0.455411 4.93451 0.0917522 6.57782C0.0430614 6.80149 0.0141524 7.02669 0.00502292 7.25188C-0.0649701 8.96367 0.60757 10.7013 1.33337 12.1727C3.04211 15.6404 5.30319 18.997 7.76359 21.9945C8.55025 22.9531 9.40691 23.8448 10.294 24.706C11.1552 25.5916 12.0469 26.4482 13.0055 27.2364C16.003 29.6968 19.3596 31.9579 22.8273 33.6666C24.285 34.3848 26.0013 35.0452 27.6964 34.9965C27.9383 34.9889 28.1802 34.9615 28.4222 34.9083C30.0655 34.5461 31.3847 33.1858 32.354 31.8864C32.9976 31.0221 33.4799 29.747 33.4784 28.7732C33.4769 28.1981 33.2152 27.6488 32.6431 27.1664ZM33.4784 19.7806C32.6385 19.7806 31.9568 19.099 31.9568 18.259V16.7375C31.9568 9.18734 25.8127 3.04317 18.2625 3.04317C17.4226 3.04317 16.741 2.3615 16.741 1.52159C16.741 0.681671 17.4226 0 18.2625 0C27.491 0 35 7.50903 35 16.7375V18.259C35 19.099 34.3183 19.7806 33.4784 19.7806ZM24.1328 16.7375C23.4572 16.7375 22.8395 16.284 22.6615 15.5993C22.2445 14.0001 20.9968 12.7509 19.4037 12.3401C18.5897 12.1286 18.1013 11.2993 18.3112 10.4853C18.5212 9.67273 19.349 9.1843 20.166 9.39276C22.8258 10.082 24.9104 12.1651 25.6057 14.8309C25.8172 15.645 25.3303 16.4742 24.5178 16.6872C24.3885 16.7207 24.2591 16.7375 24.1328 16.7375Z" fill="black" fill-opacity="0.25"/>
    <path d="M28.9139 18.2592C28.074 18.2592 27.3923 17.5776 27.3923 16.7376C27.3923 11.8868 23.5975 7.88505 18.7527 7.62942C17.9128 7.58529 17.2692 6.86863 17.3133 6.03023C17.3574 5.19032 18.0863 4.54516 18.9125 4.59081C25.3747 4.93165 30.4355 10.2679 30.4355 16.7376C30.4355 17.5776 29.7538 18.2592 28.9139 18.2592Z" fill="black" fill-opacity="0.1"/>
</svg>
