<svg width="16" height="14" viewBox="0 0 16 14" fill="none" xmlns="http://www.w3.org/2000/svg">
    <path d="M6.52999 12.19C6.22361 12.1917 5.91995 12.1325 5.63668 12.0158C5.35341 11.899 5.09618 11.7271 4.87999 11.51L2.24999 8.88001C1.8324 8.44154 1.60278 7.85718 1.61016 7.25172C1.61754 6.64626 1.86135 6.06767 2.28951 5.63952C2.71767 5.21136 3.29623 4.96756 3.90169 4.96018C4.50715 4.95279 5.09152 5.18241 5.52999 5.6L6.52999 6.6L10.53 2.6C10.7434 2.37593 10.9994 2.19682 11.2831 2.0732C11.5668 1.94958 11.8723 1.88395 12.1817 1.88018C12.4911 1.8764 12.7981 1.93456 13.0847 2.05123C13.3713 2.1679 13.6317 2.34072 13.8505 2.55952C14.0693 2.77832 14.2421 3.03867 14.3588 3.32526C14.4754 3.61185 14.5336 3.91889 14.5298 4.22829C14.526 4.5377 14.4604 4.84322 14.3368 5.12688C14.2132 5.41054 14.0341 5.66661 13.81 5.88001L8.17998 11.51C7.96531 11.7264 7.70978 11.8979 7.42824 12.0146C7.1467 12.1314 6.84478 12.191 6.54 12.19H6.52999Z" fill="#1CAFF6"/>
    <path d="M12.18 2.91999C12.4401 2.92132 12.694 2.99945 12.9098 3.14458C13.1257 3.28972 13.2938 3.49538 13.3932 3.73575C13.4925 3.97612 13.5186 4.24048 13.4683 4.49565C13.4179 4.75082 13.2932 4.98542 13.11 5.16999L10.295 7.98499L7.48001 10.8C7.35845 10.9232 7.21367 11.0211 7.05405 11.0881C6.89442 11.155 6.72308 11.1897 6.54999 11.19C6.37689 11.1897 6.20559 11.155 6.04596 11.0881C5.88633 11.0211 5.74156 10.9232 5.62 10.8L3 8.16999C2.75202 7.92201 2.6127 7.58569 2.6127 7.23499C2.6127 6.8843 2.75202 6.54797 3 6.29999C3.24798 6.05201 3.5843 5.9127 3.935 5.9127C4.28569 5.9127 4.62202 6.05201 4.87 6.29999L6.54001 7.99999L11.25 3.28999C11.4962 3.04203 11.8306 2.90179 12.18 2.89999V2.91999ZM12.18 0.899994C11.7415 0.902183 11.3078 0.991742 10.9043 1.16344C10.5008 1.33514 10.1356 1.58554 9.82999 1.89999L6.53 5.19999L6.23001 4.89999C5.9214 4.59139 5.55504 4.34659 5.15182 4.17957C4.74861 4.01255 4.31644 3.92659 3.88 3.92659C3.44357 3.92659 3.0114 4.01255 2.60818 4.17957C2.20497 4.34659 1.83861 4.59139 1.53 4.89999C1.22139 5.2086 0.976587 5.57497 0.80957 5.97818C0.642554 6.38139 0.55661 6.81356 0.55661 7.24999C0.55661 7.68643 0.642554 8.11859 0.80957 8.5218C0.976587 8.92502 1.22139 9.29138 1.53 9.59999L4.16 12.23C4.78752 12.8529 5.63582 13.2024 6.51999 13.2024C7.40416 13.2024 8.25249 12.8529 8.88 12.23L14.51 6.59999C14.9753 6.13566 15.2922 5.54367 15.4207 4.89901C15.5492 4.25436 15.4835 3.58607 15.2318 2.97883C14.9802 2.37158 14.5539 1.85272 14.007 1.48798C13.4602 1.12324 12.8173 0.929039 12.16 0.929993L12.18 0.899994Z" fill="white"/>
</svg>
