<svg width="12" height="20" viewBox="0 0 12 20" fill="none" xmlns="http://www.w3.org/2000/svg">
    <path opacity="0.5" d="M6.20872 2.83318L9.86867 6.49312C10.0997 6.65118 10.3786 6.72351 10.6573 6.69761C10.936 6.67171 11.1969 6.54924 11.3948 6.35132C11.5927 6.15341 11.7152 5.89248 11.7411 5.61379C11.767 5.33509 11.6947 5.05612 11.5366 4.82512L7.0487 0.337197C6.82494 0.120912 6.52591 -5.17269e-06 6.21471 -5.17269e-06C5.90351 -5.17269e-06 5.60448 0.120912 5.38072 0.337197L0.892788 4.82512C0.734728 5.05612 0.662388 5.33509 0.688285 5.61379C0.714183 5.89248 0.836685 6.15341 1.0346 6.35132C1.23252 6.54924 1.49339 6.67171 1.77209 6.69761C2.05079 6.72351 2.32977 6.65118 2.56077 6.49312L6.20872 2.83318Z" fill="black" fill-opacity="0.45"/>
    <path d="M6.22071 17.0694L2.56076 13.4095C2.32977 13.2514 2.05079 13.1791 1.77209 13.205C1.4934 13.2309 1.23252 13.3533 1.03461 13.5513C0.836689 13.7492 0.714182 14.0101 0.688284 14.2888C0.662387 14.5675 0.734727 14.8465 0.892788 15.0775L5.38073 19.5654C5.60448 19.7817 5.90351 19.9026 6.21472 19.9026C6.52592 19.9026 6.82495 19.7817 7.0487 19.5654L11.5366 15.0775C11.6947 14.8465 11.767 14.5675 11.7411 14.2888C11.7152 14.0101 11.5927 13.7492 11.3948 13.5513C11.1969 13.3533 10.936 13.2309 10.6573 13.205C10.3786 13.1791 10.0997 13.2514 9.86866 13.4095L6.22071 17.0694Z" fill="black" fill-opacity="0.25"/>
</svg>
