<svg width="12" height="12" viewBox="0 0 12 12" fill="none" xmlns="http://www.w3.org/2000/svg">
    <path d="M10.328 0.758049C9.8407 0.272578 9.18085 0 8.49299 0C7.80513 0 7.14534 0.272578 6.65803 0.758049L5.64802 1.80805C5.24284 2.21104 4.98352 2.73758 4.91108 3.30444C4.83864 3.87129 4.95719 4.44611 5.248 4.93805L5.03803 5.14805C4.54974 4.87782 3.98649 4.77457 3.43409 4.854C2.88169 4.93343 2.37041 5.1912 1.97804 5.58805L0.878 6.65805C0.612095 6.8931 0.39714 7.1801 0.246348 7.50137C0.0955551 7.82265 0.0121448 8.17138 0.00123031 8.52612C-0.00968418 8.88085 0.0521151 9.23406 0.182871 9.564C0.313627 9.89393 0.510593 10.1936 0.761545 10.4446C1.0125 10.6955 1.31216 10.8924 1.6421 11.0232C1.97203 11.1539 2.32521 11.2158 2.67994 11.2048C3.03467 11.1939 3.38345 11.1105 3.70472 10.9597C4.02599 10.8089 4.31299 10.594 4.54804 10.328L5.59803 9.27805C5.98625 8.89361 6.24131 8.39504 6.32588 7.85526C6.41044 7.31548 6.32005 6.76281 6.068 6.27805L6.33802 6.00805C6.81902 6.23725 7.35936 6.31129 7.88429 6.21992C8.40921 6.12856 8.89275 5.87629 9.26801 5.49805L10.318 4.44805C10.5596 4.20742 10.7513 3.92145 10.8821 3.60655C11.0129 3.29166 11.0802 2.95403 11.0802 2.61305C11.0802 2.27207 11.0129 1.93445 10.8821 1.61955C10.7513 1.30466 10.5596 1.01869 10.318 0.778053L10.328 0.758049ZM4.71803 8.37805L3.64802 9.42805C3.3916 9.67142 3.05154 9.8071 2.69801 9.8071C2.34448 9.8071 2.00442 9.67142 1.748 9.42805C1.49762 9.17526 1.35719 8.83385 1.35719 8.47805C1.35719 8.12225 1.49762 7.78084 1.748 7.52805L2.79804 6.47805C2.92885 6.34763 3.08519 6.24567 3.25727 6.17855C3.42936 6.11144 3.61348 6.08062 3.79804 6.08805H4.068L2.83802 7.31805C2.77025 7.38251 2.71627 7.46006 2.67939 7.54601C2.64252 7.63197 2.62354 7.72453 2.62354 7.81805C2.62354 7.91158 2.64252 8.00414 2.67939 8.09009C2.71627 8.17604 2.77025 8.2536 2.83802 8.31805L2.95802 8.43805C3.02247 8.50582 3.10003 8.55979 3.18598 8.59666C3.27194 8.63354 3.36449 8.65255 3.45802 8.65255C3.55155 8.65255 3.6441 8.63354 3.73005 8.59666C3.816 8.55979 3.89356 8.50582 3.95802 8.43805L5.14802 7.24805C5.16868 7.45773 5.13963 7.66933 5.06318 7.86567C4.98673 8.06201 4.86503 8.23755 4.70802 8.37805H4.71803ZM9.44801 3.54805L8.39802 4.59805C8.26519 4.72439 8.10803 4.82235 7.93611 4.88596C7.76418 4.94958 7.58109 4.9775 7.39802 4.96805L8.58802 3.77805C8.6558 3.7136 8.70978 3.63604 8.74665 3.55009C8.78353 3.46413 8.8025 3.37158 8.8025 3.27805C8.8025 3.18452 8.78353 3.09197 8.74665 3.00602C8.70978 2.92007 8.6558 2.84251 8.58802 2.77805L8.46803 2.65805C8.40357 2.59028 8.32601 2.53631 8.24006 2.49944C8.15411 2.46256 8.06156 2.44355 7.96803 2.44355C7.8745 2.44355 7.78195 2.46256 7.69599 2.49944C7.61004 2.53631 7.53248 2.59028 7.46803 2.65805L6.15803 3.96805C6.09523 3.74061 6.09357 3.50063 6.15327 3.27235C6.21297 3.04408 6.33189 2.83562 6.498 2.66805L7.53803 1.65805C7.65758 1.51239 7.8063 1.39337 7.97462 1.30865C8.14294 1.22393 8.32712 1.17538 8.51533 1.16614C8.70354 1.15689 8.89164 1.18715 9.06745 1.25497C9.24327 1.32279 9.40289 1.42667 9.53614 1.55991C9.66939 1.69316 9.77325 1.85283 9.84107 2.02864C9.90889 2.20445 9.93919 2.39252 9.92994 2.58073C9.9207 2.76895 9.87215 2.95314 9.78742 3.12146C9.7027 3.28978 9.58366 3.4385 9.438 3.55805L9.44801 3.54805Z" fill="#CBCBCB"/>
</svg>
