<svg width="48" height="48" viewBox="0 0 48 48" fill="none" xmlns="http://www.w3.org/2000/svg">
<g id="AppleArcade">
<path id="Vector" d="M42.911 24.54L27.232 18.326C26.83 18.167 26.417 18.048 26 17.95V26C26 27.105 25.105 28 24 28C22.895 28 22 27.105 22 26V17.951C21.583 18.049 21.171 18.167 20.768 18.327L5.08902 24.54C3.68902 25.095 3.62302 27.028 4.98202 27.675L18.347 34.04C21.919 35.741 26.082 35.741 29.654 34.04L43.019 27.675C44.377 27.029 44.311 25.095 42.911 24.54Z" fill="#1CB0F6"/>
<path id="Vector_2" d="M12 28C13.6569 28 15 27.3284 15 26.5C15 25.6716 13.6569 25 12 25C10.3431 25 9 25.6716 9 26.5C9 27.3284 10.3431 28 12 28Z" fill="#AED581"/>
<path id="Vector_3" d="M30.42 36.442C28.43 37.388 26.21 37.888 24 37.888C21.79 37.888 19.57 37.387 17.579 36.442C17.579 36.442 8.582 32.158 5.235 30.561C4.662 30.287 4 30.701 4 31.329V33.648C4 33.978 4.192 34.279 4.494 34.421L17.475 40.541C21.601 42.486 26.398 42.486 30.524 40.541L43.505 34.421C43.808 34.279 44 33.978 44 33.648V31.334C44 30.704 43.336 30.289 42.761 30.563C39.41 32.162 30.42 36.442 30.42 36.442Z" fill="#1899D6"/>
<path id="Vector_4" d="M24 16C26.7614 16 29 13.7614 29 11C29 8.23858 26.7614 6 24 6C21.2386 6 19 8.23858 19 11C19 13.7614 21.2386 16 24 16Z" fill="#FF7878"/>
</g>
</svg>
