<svg width="733" height="786" viewBox="0 0 733 786" fill="none" xmlns="http://www.w3.org/2000/svg">
    <path d="M182.667 252.365L33 154.474M412.567 81L668.56 93.081L412.567 81ZM407.167 81L452.287 335.958L407.167 81ZM668.56 520.654L452.287 335.958L668.56 520.654ZM209.99 520.654L452.287 335.958L209.99 520.654ZM209.99 520.654L182.667 252.365L209.99 520.654ZM668.56 520.654L484.745 723.846L668.56 520.654Z" stroke="white" stroke-opacity="0.15" stroke-width="16.5" stroke-linecap="round" stroke-linejoin="round"/>
    <path d="M177.427 328.505C220.477 328.505 255.376 293.678 255.376 250.717C255.376 207.756 220.477 172.929 177.427 172.929C134.377 172.929 99.478 207.756 99.478 250.717C99.478 293.678 134.377 328.505 177.427 328.505Z" fill="#FFC800"/>
    <mask id="mask0" mask-type="alpha" maskUnits="userSpaceOnUse" x="323" y="0" width="158" height="158">
        <path d="M402.167 157.106C445.425 157.106 480.492 121.937 480.492 78.553C480.492 35.1694 445.425 0 402.167 0C358.909 0 323.842 35.1694 323.842 78.553C323.842 121.937 358.909 157.106 402.167 157.106Z" fill="white"/>
    </mask>
    <g mask="url(#mask0)">
        <path d="M402.167 157.106C445.425 157.106 480.492 121.937 480.492 78.553C480.492 35.1694 445.425 0 402.167 0C358.909 0 323.842 35.1694 323.842 78.553C323.842 121.937 358.909 157.106 402.167 157.106Z" fill="#7AC70C"/>
        <path fill-rule="evenodd" clip-rule="evenodd" d="M362.519 89.128C362.594 88.418 362.811 87.721 363.084 87.175L379.966 52.38C381.721 48.685 384.092 46.635 387.789 47.024C391.486 47.412 393.451 49.918 394.399 53.897L403.465 91.42C403.618 92.01 403.685 92.736 403.611 93.447C403.297 96.431 400.678 98.096 398.048 97.819C395.773 97.58 394.066 96.036 393.531 93.609L392.161 87.501L374.885 85.686L372.345 91.382C371.317 93.645 369.326 94.801 367.051 94.562C364.421 94.285 362.205 92.112 362.519 89.128V89.128ZM378.804 77.117L390.179 78.312L386.411 60.817L386.198 60.795L378.804 77.117V77.117Z" fill="white"/>
        <path fill-rule="evenodd" clip-rule="evenodd" d="M443.619 94.742C444.091 95.725 444.27 96.75 444.166 97.745C443.89 100.375 441.476 102.132 438.704 101.841C436.998 101.661 435.643 100.873 434.854 99.496L434.127 98.199L434.056 98.191C432.047 100.207 428.216 101.098 423.95 100.65C415.135 99.723 411.287 95.295 411.975 88.758C412.774 81.154 418.827 78.27 427.358 79.167L433.543 79.817C433.828 79.847 433.985 79.719 434.015 79.435L434.052 79.08C434.388 75.882 432.315 73.724 427.552 73.224C425.419 72.999 423.234 73.273 421.902 73.636C421.019 73.83 420.214 73.961 419.503 73.886C417.157 73.64 415.687 71.905 415.94 69.489C416.097 67.996 416.973 66.508 418.918 65.779C421.313 64.88 424.886 64.394 429.649 64.894C440.029 65.985 444.452 71.767 443.549 80.365L442.563 89.745C442.391 91.38 442.451 92.176 442.859 93.081L443.619 94.741V94.742ZM426.085 93.33C430.28 93.771 432.648 92.44 432.985 89.242L433.231 86.897C433.261 86.612 433.133 86.455 432.849 86.425L428.014 85.917C423.82 85.477 421.766 86.554 421.49 89.183C421.236 91.599 422.815 92.986 426.085 93.33V93.33Z" fill="#ADE756"/>
    </g>
    <path d="M202.28 594.251C245.3 597.259 282.608 564.898 285.61 521.971C288.612 479.043 256.17 441.805 213.15 438.797C170.13 435.788 132.822 468.149 129.82 511.077C126.818 554.005 159.26 591.243 202.28 594.251Z" fill="#1CB0F6"/>
    <path fill-rule="evenodd" clip-rule="evenodd" d="M200.357 476.078C219.707 470.894 239.586 482.343 244.759 501.651L209.726 511.039L200.356 476.079L200.357 476.078Z" fill="#7AF0F2"/>
    <path fill-rule="evenodd" clip-rule="evenodd" d="M195.583 486.725L204.511 520.047L237.904 511.099C242.834 529.502 231.882 548.427 213.44 553.369C194.998 558.309 176.05 547.397 171.119 528.994C166.188 510.591 177.141 491.667 195.583 486.725V486.725Z" fill="white"/>
    <path d="M459.241 417.363C510.723 417.363 552.458 375.166 552.458 323.113C552.458 271.06 510.723 228.863 459.241 228.863C407.759 228.863 366.024 271.06 366.024 323.113C366.024 375.166 407.759 417.363 459.241 417.363Z" fill="#FF4B4B"/>
    <path fill-rule="evenodd" clip-rule="evenodd" d="M441.885 330.907L432.405 343.087C431.985 343.626 431.416 344.029 430.768 344.247C430.121 344.464 429.424 344.486 428.764 344.31C428.104 344.134 427.51 343.767 427.057 343.255C426.604 342.744 426.312 342.11 426.217 341.434L425.065 333.237C419.315 333.602 414.167 329.479 413.352 323.679L410.402 302.694C409.547 296.608 413.788 290.98 419.874 290.125L454.266 285.291C460.353 284.436 465.98 288.677 466.836 294.763L469.784 315.748C470.64 321.834 466.399 327.461 460.313 328.317L441.885 330.907V330.907Z" fill="#FFC1C1"/>
    <path fill-rule="evenodd" clip-rule="evenodd" d="M478.697 349.176L492.835 359.355C493.388 359.753 494.046 359.98 494.727 360.007C495.408 360.035 496.082 359.862 496.665 359.509C497.248 359.157 497.715 358.641 498.008 358.026C498.3 357.411 498.406 356.723 498.311 356.048L496.978 346.565C502.553 345.291 506.318 339.936 505.507 334.17L502.014 309.32C501.159 303.234 495.532 298.994 489.445 299.849L448.213 305.644C442.127 306.499 437.886 312.127 438.742 318.213L442.234 343.063C443.089 349.148 448.717 353.389 454.803 352.533L478.697 349.176V349.176Z" fill="white"/>
    <mask id="mask1" mask-type="alpha" maskUnits="userSpaceOnUse" x="592" y="450" width="141" height="143">
        <path d="M662.506 592.355C701.369 592.355 732.873 560.588 732.873 521.401C732.873 482.214 701.369 450.447 662.506 450.447C623.643 450.447 592.139 482.214 592.139 521.401C592.139 560.588 623.643 592.355 662.506 592.355Z" fill="white"/>
    </mask>
    <g mask="url(#mask1)">
        <path d="M621.808 579.523C653.642 601.814 697.67 593.862 720.147 561.762C742.623 529.662 735.037 485.569 703.203 463.279C671.369 440.988 627.341 448.94 604.864 481.04C582.388 513.14 589.973 557.232 621.808 579.523Z" fill="#FF9600"/>
        <path d="M647.312 502.525L636.147 500.152C634.096 499.716 632.079 501.025 631.643 503.077L625.041 534.138C624.605 536.189 625.915 538.205 627.966 538.641L639.131 541.014C641.183 541.45 643.199 540.141 643.635 538.09L650.237 507.029C650.673 504.978 649.364 502.961 647.312 502.525Z" fill="white"/>
        <path d="M675.681 486.613L664.515 484.239C662.464 483.803 660.448 485.113 660.012 487.164L648.947 539.219C648.511 541.27 649.821 543.287 651.872 543.723L663.037 546.096C665.088 546.532 667.105 545.222 667.541 543.171L678.605 491.116C679.041 489.065 677.732 487.049 675.681 486.613Z" fill="white"/>
        <path d="M696.843 500.254L685.678 497.88C683.626 497.444 681.61 498.754 681.174 500.805L671.969 544.113C671.533 546.164 672.842 548.18 674.893 548.616L686.059 550.989C688.11 551.425 690.126 550.116 690.562 548.065L699.768 504.757C700.204 502.706 698.894 500.69 696.843 500.254Z" fill="#FFCE8E"/>
    </g>
    <path d="M458.444 763.994C480.061 775.976 507.397 767.99 519.5 746.156C531.603 724.321 523.89 696.907 502.272 684.924C480.655 672.942 453.319 680.928 441.216 702.762C429.113 724.597 436.826 752.011 458.444 763.994Z" fill="#FFC800"/>
    <path d="M645.371 119.813C660.217 130.208 680.671 126.613 691.055 111.783C701.439 96.9528 697.822 76.5031 682.975 66.1074C668.129 55.7117 647.675 59.3067 637.291 74.137C626.907 88.9672 630.524 109.417 645.371 119.813Z" fill="#1CB0F6"/>
    <path d="M29.148 183.561C45.246 183.561 58.296 170.539 58.296 154.475C58.296 138.411 45.246 125.389 29.148 125.389C13.05 125.389 0 138.411 0 154.475C0 170.539 13.05 183.561 29.148 183.561Z" fill="#CE82FF"/>
    <path fill-rule="evenodd" clip-rule="evenodd" d="M214.389 269.506C214.032 270.315 213.926 271.212 214.084 272.082C214.241 272.952 214.655 273.754 215.273 274.386L215.433 274.548C215.932 275.047 216.327 275.638 216.597 276.289C216.867 276.941 217.006 277.639 217.006 278.343C217.006 279.048 216.867 279.746 216.597 280.397C216.327 281.049 215.932 281.64 215.433 282.138C214.935 282.637 214.344 283.032 213.694 283.302C213.043 283.571 212.345 283.71 211.641 283.71C210.937 283.71 210.239 283.571 209.589 283.302C208.938 283.032 208.347 282.637 207.849 282.138L207.688 281.976C207.057 281.358 206.254 280.943 205.384 280.785C204.515 280.628 203.618 280.734 202.809 281.091C202.016 281.432 201.34 281.996 200.864 282.716C200.388 283.436 200.132 284.279 200.129 285.141V285.597C200.129 288.559 197.729 290.96 194.769 290.96C194.065 290.96 193.368 290.821 192.717 290.552C192.067 290.282 191.476 289.887 190.978 289.389C190.48 288.891 190.085 288.3 189.816 287.649C189.547 286.999 189.408 286.302 189.408 285.597V285.355C189.388 284.468 189.1 283.607 188.584 282.885C188.068 282.162 187.346 281.612 186.513 281.305C185.705 280.949 184.808 280.842 183.938 281C183.069 281.158 182.266 281.573 181.635 282.191L181.475 282.351C180.977 282.85 180.386 283.246 179.735 283.515C179.084 283.785 178.387 283.924 177.682 283.924C176.978 283.924 176.28 283.785 175.629 283.515C174.978 283.246 174.387 282.85 173.889 282.351C173.391 281.853 172.995 281.262 172.725 280.611C172.456 279.96 172.317 279.262 172.317 278.557C172.317 277.852 172.456 277.154 172.725 276.503C172.995 275.852 173.391 275.261 173.889 274.762L174.049 274.602C174.667 273.97 175.082 273.167 175.24 272.297C175.398 271.427 175.291 270.53 174.934 269.72C174.595 268.927 174.031 268.251 173.312 267.774C172.593 267.298 171.75 267.042 170.887 267.038H170.431C169.009 267.038 167.646 266.473 166.641 265.467C165.635 264.461 165.071 263.097 165.071 261.675C165.071 258.713 167.471 256.311 170.431 256.311H170.672C171.56 256.291 172.42 256.003 173.142 255.487C173.864 254.97 174.414 254.249 174.72 253.415C175.077 252.607 175.183 251.709 175.025 250.839C174.868 249.969 174.453 249.167 173.835 248.534L173.675 248.373C173.177 247.875 172.781 247.284 172.511 246.632C172.241 245.981 172.102 245.283 172.102 244.578C172.102 243.874 172.241 243.176 172.511 242.524C172.781 241.873 173.177 241.282 173.675 240.783C174.173 240.285 174.764 239.89 175.415 239.62C176.066 239.35 176.763 239.211 177.468 239.211C178.172 239.211 178.87 239.35 179.52 239.62C180.171 239.89 180.762 240.285 181.26 240.783L181.42 240.944C182.052 241.563 182.854 241.978 183.724 242.136C184.594 242.293 185.491 242.187 186.299 241.829H186.513C187.306 241.489 187.982 240.925 188.458 240.205C188.935 239.485 189.19 238.642 189.193 237.779V237.324C189.193 234.362 191.593 231.96 194.554 231.96C197.514 231.96 199.914 234.362 199.914 237.324V237.565C199.917 238.428 200.173 239.272 200.649 239.991C201.126 240.711 201.802 241.275 202.595 241.615C203.403 241.972 204.3 242.079 205.17 241.921C206.039 241.764 206.842 241.349 207.473 240.73L207.634 240.569C208.132 240.071 208.723 239.676 209.374 239.406C210.025 239.136 210.722 238.997 211.427 238.997C212.131 238.997 212.829 239.136 213.479 239.406C214.13 239.676 214.721 240.071 215.219 240.569C215.718 241.068 216.113 241.659 216.383 242.31C216.653 242.962 216.792 243.66 216.792 244.364C216.792 245.069 216.653 245.767 216.383 246.418C216.113 247.07 215.718 247.661 215.219 248.159L215.059 248.319C214.441 248.952 214.026 249.754 213.869 250.624C213.711 251.494 213.817 252.391 214.174 253.2V253.415C214.514 254.209 215.078 254.885 215.797 255.362C216.516 255.838 217.358 256.094 218.221 256.097H218.677C221.637 256.097 224.037 258.498 224.037 261.46C224.037 264.423 221.637 266.824 218.677 266.824H218.436C217.573 266.828 216.731 267.084 216.012 267.56C215.293 268.037 214.729 268.713 214.389 269.506V269.506ZM195.054 271.96C200.574 271.96 205.048 267.483 205.048 261.96C205.048 256.437 200.574 251.96 195.054 251.96C189.534 251.96 185.059 256.437 185.059 261.96C185.059 267.483 189.534 271.96 195.054 271.96Z" fill="white"/>
    <path fill-rule="evenodd" clip-rule="evenodd" d="M169.651 236.107C169.251 236.539 168.99 237.08 168.901 237.661C168.812 238.243 168.899 238.837 169.151 239.368L169.218 239.504C169.424 239.926 169.545 240.383 169.573 240.851C169.602 241.319 169.538 241.788 169.386 242.232C169.233 242.675 168.994 243.084 168.684 243.435C168.373 243.786 167.996 244.072 167.574 244.277C167.153 244.483 166.695 244.604 166.226 244.633C165.758 244.662 165.289 244.598 164.845 244.445C164.402 244.293 163.993 244.054 163.641 243.743C163.29 243.432 163.004 243.055 162.798 242.633L162.732 242.497C162.468 241.972 162.053 241.537 161.539 241.249C161.026 240.961 160.438 240.834 159.852 240.883C159.28 240.925 158.732 241.134 158.276 241.483C157.821 241.832 157.477 242.307 157.288 242.848L157.188 243.135C156.88 244.03 156.228 244.765 155.378 245.18C154.527 245.595 153.547 245.655 152.652 245.346C151.757 245.038 151.022 244.388 150.607 243.537C150.192 242.687 150.131 241.706 150.439 240.811L150.491 240.659C150.67 240.096 150.676 239.492 150.507 238.926C150.339 238.36 150.003 237.858 149.545 237.484C149.113 237.085 148.572 236.824 147.99 236.734C147.409 236.645 146.814 236.732 146.282 236.984L146.146 237.05C145.725 237.256 145.267 237.377 144.799 237.405C144.331 237.434 143.862 237.37 143.418 237.218C142.975 237.065 142.566 236.827 142.215 236.516C141.863 236.206 141.577 235.829 141.371 235.407C141.165 234.986 141.045 234.528 141.016 234.06C140.987 233.592 141.051 233.123 141.204 232.68C141.356 232.236 141.595 231.827 141.905 231.476C142.216 231.125 142.593 230.838 143.014 230.632L143.15 230.566C143.676 230.303 144.111 229.888 144.399 229.375C144.686 228.862 144.814 228.275 144.764 227.688C144.722 227.116 144.513 226.568 144.163 226.112C143.814 225.657 143.338 225.313 142.796 225.124L142.509 225.025C142.053 224.884 141.63 224.652 141.265 224.343C140.9 224.035 140.601 223.656 140.385 223.23C140.169 222.804 140.041 222.339 140.008 221.862C139.976 221.385 140.039 220.907 140.194 220.455C140.35 220.004 140.595 219.588 140.914 219.232C141.233 218.877 141.621 218.589 142.053 218.386C142.486 218.183 142.954 218.069 143.432 218.051C143.909 218.033 144.385 218.11 144.832 218.279L144.984 218.331C145.547 218.511 146.151 218.517 146.717 218.348C147.284 218.18 147.787 217.845 148.16 217.387C148.56 216.956 148.821 216.415 148.911 215.833C149 215.252 148.912 214.657 148.66 214.125L148.593 213.989C148.387 213.568 148.267 213.11 148.238 212.642C148.209 212.174 148.273 211.705 148.426 211.262C148.578 210.819 148.817 210.41 149.128 210.059C149.439 209.708 149.816 209.422 150.237 209.216C150.659 209.011 151.117 208.89 151.585 208.861C152.053 208.832 152.523 208.896 152.966 209.049C153.41 209.202 153.819 209.441 154.17 209.752C154.521 210.063 154.808 210.44 155.013 210.861L155.079 210.997C155.343 211.523 155.758 211.958 156.272 212.246C156.785 212.533 157.373 212.661 157.959 212.611L158.094 212.657C158.667 212.616 159.214 212.407 159.67 212.058C160.125 211.709 160.469 211.234 160.658 210.692L160.758 210.405C161.067 209.511 161.718 208.775 162.568 208.361C163.419 207.946 164.399 207.886 165.294 208.194C166.189 208.503 166.925 209.153 167.34 210.004C167.755 210.854 167.815 211.835 167.507 212.729L167.455 212.881C167.27 213.425 167.249 214.011 167.392 214.567C167.536 215.122 167.84 215.624 168.265 216.009C168.697 216.409 169.239 216.671 169.82 216.76C170.402 216.849 170.997 216.762 171.529 216.509L171.665 216.444C172.516 216.029 173.497 215.969 174.393 216.277C175.288 216.585 176.024 217.236 176.44 218.087C176.855 218.938 176.915 219.919 176.607 220.814C176.299 221.71 175.648 222.446 174.797 222.861L174.661 222.928C174.135 223.192 173.701 223.607 173.413 224.119C173.125 224.632 172.998 225.219 173.047 225.805L173.001 225.94C173.043 226.513 173.252 227.061 173.602 227.516C173.951 227.972 174.426 228.315 174.968 228.504L175.255 228.604C175.711 228.746 176.134 228.978 176.499 229.287C176.864 229.595 177.163 229.974 177.379 230.4C177.595 230.826 177.723 231.291 177.756 231.768C177.789 232.244 177.725 232.723 177.57 233.174C177.414 233.626 177.17 234.042 176.85 234.397C176.531 234.753 176.144 235.041 175.711 235.243C175.279 235.446 174.81 235.56 174.333 235.579C173.855 235.597 173.379 235.52 172.932 235.35L172.78 235.297C172.236 235.113 171.651 235.091 171.095 235.235C170.539 235.379 170.037 235.682 169.651 236.107V236.107ZM156.734 233.981C157.634 234.292 158.586 234.421 159.536 234.364C160.486 234.306 161.415 234.061 162.271 233.645C163.126 233.228 163.891 232.646 164.522 231.934C165.153 231.221 165.637 230.391 165.947 229.491C166.572 227.674 166.45 225.683 165.607 223.956C164.764 222.228 163.269 220.907 161.452 220.281C160.552 219.971 159.6 219.841 158.65 219.899C157.7 219.957 156.771 220.201 155.916 220.618C155.06 221.035 154.295 221.617 153.664 222.329C153.034 223.042 152.549 223.872 152.239 224.771C151.614 226.589 151.736 228.58 152.579 230.307C153.422 232.034 154.917 233.356 156.734 233.981Z" fill="#FFE896"/>
</svg>
