<svg width="346" height="346" viewBox="0 0 346 346" fill="none" xmlns="http://www.w3.org/2000/svg">
    <g clip-path="url(#clip0)">
        <path d="M275.524 112.232C285.608 178.537 231.262 234.115 190.21 239.457C149.157 244.8 80.3123 204.979 70.2486 138.915C68.3543 126.452 69.1331 113.767 72.5404 101.584C75.9478 89.3999 81.9169 77.956 90.1071 67.9054C98.2973 57.8548 108.548 49.3943 120.274 43.007C132 36.6197 144.972 32.4306 158.449 30.679C171.926 28.9274 185.644 29.6476 198.82 32.7983C211.996 35.9491 224.372 41.4687 235.241 49.0422C246.11 56.6156 255.259 66.0945 262.167 76.9376C269.074 87.7808 273.604 99.7758 275.499 112.238L275.524 112.232Z" stroke="#D4D4D4" stroke-width="12" stroke-miterlimit="10"/>
        <path d="M243.58 321.124C222.292 313.329 202.528 297.103 192.678 271.71M105.832 132.796C84.5442 125.001 142.549 208.217 132.699 182.818L105.832 132.796Z" stroke="#D4D4D4" stroke-width="12" stroke-miterlimit="10" stroke-linecap="round"/>
        <path d="M179.945 240.782L173.999 270.529L215.051 265.192L200.468 238.114L179.945 240.782Z" stroke="#D4D4D4" stroke-width="12" stroke-linecap="round" stroke-linejoin="round"/>
    </g>
    <defs>
        <clipPath id="clip0">
            <rect width="332" height="307" fill="white" transform="translate(7 20)"/>
        </clipPath>
    </defs>
</svg>
