<svg width="60" height="91" viewBox="0 0 60 91" fill="none" xmlns="http://www.w3.org/2000/svg">
    <path fill-rule="evenodd" clip-rule="evenodd" d="M29.4727 28.9631C30.5535 28.6638 31.796 28.6986 32.9048 28.7751C34.0309 28.8529 35.2392 28.9863 36.2959 29.4069C37.2145 29.7726 37.9891 30.3875 38.4611 31.2686C38.8492 31.993 39.0312 32.7874 39.1452 33.5942C39.1918 33.9244 39.2309 34.2554 39.268 34.5867L39.3444 35.276C39.3743 35.5395 39.4004 35.7371 39.4528 36.0312C39.5978 36.8445 39.7997 37.524 40.2506 38.1157C41.3424 39.5483 43.1252 40.0278 44.7464 40.6392C45.7839 41.0305 46.6054 41.7343 46.8333 42.8652C47.0532 43.9563 55.4142 53.1096 56.235 53.8812L56.2575 53.902C56.8942 54.4755 56.8193 55.5535 56.9084 56.3406C57.0038 57.1845 57.0947 58.029 57.181 58.8737C57.3562 60.5901 57.5123 62.3082 57.6492 64.0278C58.1847 70.7533 58.4276 77.5021 58.376 84.2486L58.3728 84.6304C58.3648 85.4866 58.3712 86.3466 58.3328 87.202C58.2959 88.024 58.0472 88.8468 57.2858 89.2762C56.5804 89.6741 55.6883 89.639 54.9 89.6788L54.8528 89.6812C54.0068 89.7276 53.1605 89.7655 52.3138 89.7969C48.8729 89.9243 45.4288 89.938 41.9859 89.9222C35.1556 89.8907 28.3185 89.7405 21.4947 90.1231C19.7552 90.2206 14.2098 89.628 12.4758 89.7969C10.8185 89.9582 12.2405 90.7714 11.2166 90.7178C7.84952 90.5416 4.65564 89.79 1.42959 88.8847C1.02659 88.7716 0.718415 88.3804 0.723418 87.9574C0.783396 83.3122 0.914484 78.6682 1.11932 74.0271C1.3018 69.8929 1.54226 65.7613 1.84055 61.6339C1.97024 59.8398 2.11083 58.0465 2.26231 56.2541L2.3279 55.486C2.41347 54.4955 2.46269 53.4867 2.65739 52.5099C2.85 51.5438 3.28694 50.7061 3.9205 49.9575C4.48901 49.286 10.9256 44.0288 12.4758 43.0335C13.9596 42.0808 15.5177 41.2771 17.041 40.3941C17.6747 40.0267 18.2834 40.1589 18.8248 39.708C19.1102 39.4703 23.2517 37.8686 24.369 37.3401L24.402 37.3245C25.2572 36.914 26.0442 36.4689 26.6351 35.7592C26.8332 35.5213 27.2217 34.0223 27.2224 33.5434C27.2238 32.6878 27.159 31.7866 27.417 30.9578C27.7255 29.9668 28.4691 29.241 29.4727 28.9631ZM31.305 51.0228L24.6873 63.9156H28.9905L25.9059 71.0789H32.6798L30.2769 81.1127L44.0185 63.9156H38.8619L44.0185 57.1447H40.442L44.0185 51.4106L31.305 51.0228Z" fill="white"/>
    <path fill-rule="evenodd" clip-rule="evenodd" d="M53.5354 58.2727C53.5201 58.2879 53.504 58.3033 53.4887 58.3193C53.5064 58.2944 53.5217 58.2686 53.5354 58.2429V58.2727ZM40.6742 54.517C40.0799 55.2766 39.451 56.8221 38.8736 57.5953C38.7908 57.7062 38.7095 57.8173 38.6291 57.9291C38.3895 58.2646 38.7095 58.7778 39.1036 58.7562C39.8909 58.7143 40.6775 58.6556 41.464 58.5961C39.8483 60.3974 38.5069 62.6349 37.0231 64.5432C36.9226 64.6711 36.8236 64.7999 36.7247 64.9285C36.3491 65.4185 36.7255 65.6406 37.2386 65.5086C37.3448 65.4813 37.4509 65.454 37.5571 65.4274C38.3034 65.2359 39.0489 65.0445 39.7952 64.8538C40.2078 64.7475 40.6228 64.6165 41.041 64.5352C41.2131 64.5022 41.3779 64.5296 41.5404 64.5384C41.4624 64.6574 41.353 64.8722 41.3313 64.9052C41.0876 65.2849 40.8423 65.6631 40.5954 66.0396C40.1145 66.7718 39.6312 67.503 39.1301 68.2215C37.1759 71.0229 35.068 73.6973 32.9786 76.3965C32.4527 77.0754 31.9195 77.7473 31.3774 78.4127C31.3799 78.4085 31.3815 78.4045 31.3839 78.4006C31.872 77.4495 32.3602 76.4995 32.8484 75.5484C33.7764 73.7415 34.6957 71.9297 35.6334 70.1275C35.6816 70.0334 35.7307 69.9401 35.7798 69.8459C35.9744 69.4726 35.6551 69.0849 35.2554 69.1636C33.3055 69.5479 31.3745 70.0202 29.4674 70.5794C29.3816 70.6709 29.2554 70.6977 29.1427 70.6756C29.0661 70.6985 28.9891 70.7206 28.9125 70.7438C28.9357 70.6956 28.9598 70.6479 28.9832 70.5999C28.9053 70.5321 28.8665 70.4273 28.9172 70.2964C30.0145 67.4638 31.5191 64.7292 33.3017 62.2249C33.23 62.2263 33.1584 62.2273 33.0864 62.2294C31.1297 62.2825 29.2101 62.5633 27.3242 63.0966C27.3153 62.922 27.4207 62.6518 27.4778 62.523C27.7062 62.0089 27.9683 61.5068 28.2136 61.0008C28.7155 59.9613 29.2173 58.9227 29.7191 57.8832C30.2097 56.8679 30.6963 55.8494 31.1579 54.8196C31.4 54.2797 31.642 53.739 31.8833 53.1985C32.0803 52.7583 32.2355 52.315 32.3988 51.8645C32.8781 52.0053 39.0328 52.0358 40.5287 52.1397C40.8954 52.1654 41.2629 52.1888 41.6305 52.2089C41.9232 52.2258 42.3358 52.2901 42.5376 52.0255L42.614 52.0897C41.9497 52.8846 41.3128 53.7013 40.6742 54.517ZM16.6449 39.749C16.6755 39.7353 16.7052 39.7217 16.735 39.708C16.7502 39.7297 16.7687 39.7498 16.788 39.7699C16.8363 39.819 16.8837 39.872 16.9336 39.9204C16.8371 39.864 16.7406 39.8069 16.6449 39.749ZM59.6579 84.9632C59.6024 83.791 59.5405 82.6187 59.4745 81.4465C59.3443 79.1552 59.21 76.8639 59.0306 74.5758C58.6663 69.9393 58.3269 65.3043 57.7809 60.6846C57.5517 58.7481 57.2316 56.8261 56.9107 54.9032C56.9517 54.8662 56.9935 54.8292 57.0345 54.7931C56.9903 55.3191 57.7045 55.6523 58.0583 55.1277C58.0849 55.0883 58.1106 55.0489 58.1363 55.0079C58.4427 54.5123 59.1488 52.0809 59.0998 51.8749C59.0113 51.504 58.7652 51.1743 58.573 50.8476C58.4049 50.5619 58.2352 50.2763 58.0631 49.9932C57.7197 49.4259 57.3659 48.8644 56.9951 48.3148C56.2271 47.1773 55.3875 46.0848 54.3983 45.1298C53.3745 44.1402 52.1996 43.3267 50.986 42.589C50.4029 42.235 49.8014 41.914 49.1885 41.6147C48.5838 41.3202 47.9219 40.9944 47.2705 40.827C47.2335 40.8174 47.1957 40.8689 47.2295 40.8963C47.4024 41.0331 47.5833 41.1617 47.7675 41.2856C47.2689 41.1127 46.755 40.9879 46.2371 40.9437C45.2342 40.5913 44.2193 40.2688 43.2212 39.901C42.2401 39.539 41.2734 39.1319 40.6212 38.2743C40.0638 37.5413 39.7116 36.6443 39.4406 35.7706C39.143 34.8076 39.0248 33.8066 38.7497 32.842C38.728 32.764 38.6002 32.7551 38.5833 32.842C38.387 33.8541 38.3959 34.9918 38.5077 36.0135C38.6251 37.0851 38.9267 38.1367 39.5829 39.008C40.3453 40.021 41.3796 40.5849 42.5433 41.0346C43.4818 41.3983 44.4324 41.7683 45.3934 42.0934C45.268 42.1755 45.1409 42.2575 45.0098 42.3355C44.4887 42.6454 43.9466 42.9205 43.3925 43.1675C42.3808 43.6188 41.3152 43.9568 40.2432 44.2311C38.2479 44.7395 36.202 44.9978 34.1448 45.0316C30.0288 45.1 25.8669 44.2375 22.1023 42.5721C21.0424 42.1031 20.0073 41.5873 18.9828 41.0459C18.6627 40.8769 18.341 40.7063 18.0209 40.531C18.0475 40.5294 18.0748 40.527 18.1013 40.5245C18.8163 40.457 19.5224 40.3194 20.214 40.1247C21.6303 39.7249 22.9878 39.1014 24.3212 38.4874C25.4519 37.9669 26.6164 37.3739 27.3073 36.2895C27.6764 35.7094 27.8461 35.0288 27.9836 34.3626C28.1372 33.6209 28.3182 32.8758 28.43 32.1268C28.4694 31.8646 28.4107 31.5098 28.1292 31.3859C28.0166 31.3367 27.9241 31.2965 27.7978 31.2965C27.5188 31.2965 27.2325 31.4993 27.1657 31.7777C27.0009 32.472 26.9011 33.1856 26.7717 33.8871C26.6599 34.4937 26.5577 35.127 26.2304 35.6603C25.6586 36.5944 24.5375 37.0722 23.5902 37.5269C22.3895 38.1029 21.1879 38.6644 19.9406 39.1319C19.3913 39.3378 18.8324 39.5246 18.2654 39.6773C18.2879 39.5382 18.2686 39.3917 18.1866 39.2815C18.0499 39.0997 17.8947 38.979 17.7185 38.8399C17.5271 38.6886 17.2698 38.6098 17.0438 38.6766C17.0438 38.6773 17.043 38.6766 17.043 38.6766C16.9513 38.6565 16.85 38.6644 16.7454 38.7119C16.4221 38.86 16.0996 39.0096 15.7771 39.1617C11.1376 41.3452 6.62992 43.91 3.21599 47.816C2.72381 48.3792 2.26299 48.9714 1.83112 49.582C1.41132 50.175 0.891793 50.8186 0.775985 51.5539C0.766334 51.6151 0.855603 51.6433 0.870883 51.5805C0.898226 51.467 0.935221 51.356 0.981061 51.2482C0.885359 51.583 0.890988 51.9386 1.0261 52.2885C1.18614 52.7004 1.47968 52.9732 1.85043 53.0817C1.47807 54.7142 1.22796 56.3683 1.0269 58.0409C0.738186 60.4505 0.533109 62.8658 0.378699 65.2874C0.0698775 70.1203 -0.0676446 74.9773 0.032079 79.819C0.0602268 81.1874 0.106872 82.556 0.177643 83.9237C0.213029 84.6076 0.251632 85.2906 0.295864 85.9744C0.339292 86.6471 0.303906 87.3881 0.890184 87.7429C0.897422 87.7694 0.905464 87.7951 0.912702 87.8216C1.05505 88.318 1.68958 88.1588 1.74909 87.7082C1.7499 87.7034 1.7507 87.6977 1.75151 87.693C2.23082 87.3269 2.15844 86.7171 2.12306 86.1321C2.08526 85.5006 2.04505 84.8699 2.01127 84.2391C1.94693 83.029 1.89224 81.8191 1.84319 80.6082C1.74748 78.2139 1.6936 75.8164 1.67591 73.4204C1.64052 68.6278 1.91718 63.8424 2.2453 59.0635C2.38282 57.0642 2.54366 55.0738 2.59272 53.0753C2.84927 52.9417 2.92808 52.5621 2.79941 52.3062C5.83776 54.3802 8.65736 56.8598 10.9212 59.7418C11.2992 60.2228 11.6603 60.7184 12.0061 61.2229C12.1187 61.387 12.2257 61.5576 12.3335 61.7281C12.2289 62.2036 12.1477 62.6871 12.0415 63.1433C11.8228 64.0855 11.7303 65.0629 11.6048 66.0204C11.3499 67.9649 11.1706 69.9271 11.0186 71.8821C10.7194 75.7431 10.4974 79.6034 10.4275 83.4756C10.3889 85.6655 10.3374 87.8691 10.4339 90.0583C10.3623 90.4863 10.7475 90.9047 11.1504 90.9586C11.5035 91.006 11.8332 90.8226 11.9876 90.5273C13.0878 90.6641 14.2169 90.7269 15.3099 90.7349C16.7824 90.7453 18.2549 90.7438 19.7275 90.7123C22.6733 90.648 25.6184 90.5724 28.5635 90.4847C34.4536 90.3109 40.3437 90.1364 46.2346 89.9618C47.868 89.9134 49.5014 89.8652 51.1348 89.817C51.8714 89.7952 52.7899 90.0076 53.3705 89.4388C53.4702 89.3406 53.5474 89.2255 53.6021 89.1024C53.7758 89.1459 53.9889 89.1033 54.1031 88.9689C54.3163 88.7171 54.4731 88.4838 54.465 88.1347C54.4578 87.808 54.3677 87.4637 54.3211 87.1403C54.2326 86.5328 54.1474 85.9253 54.0662 85.3171C53.9061 84.1151 53.7565 82.9116 53.619 81.7071C53.3375 79.2445 53.0818 76.7761 52.8823 74.3054C52.4867 69.4195 52.3749 64.5078 52.3885 59.6066C52.3902 59.1681 52.3926 58.7297 52.395 58.2911C52.4135 58.3145 52.4336 58.3362 52.4553 58.3547C52.473 58.3699 52.4907 58.3852 52.5084 58.4014C52.7143 58.5824 53.0569 58.6758 53.3038 58.5044C53.6069 58.308 53.816 58.0135 54.0525 57.7473C54.301 57.4681 54.5567 57.1961 54.8149 56.9259C55.3151 56.4029 55.8322 55.9016 56.3598 55.406C56.4024 55.3667 56.445 55.3265 56.4877 55.2878C56.4909 56.8478 56.4893 58.407 56.5311 59.9662C56.5938 62.2825 56.7193 64.5963 56.8343 66.9094C57.0627 71.4895 57.2991 76.0681 57.5267 80.6476C57.5903 81.9261 57.6506 83.2052 57.7141 84.4836C57.7463 85.1232 57.7776 85.7628 57.8082 86.4025C57.8243 86.7484 57.8404 87.0952 57.8565 87.4412C57.8741 87.8129 57.8508 88.2102 57.9763 88.5635C58.2618 89.3712 59.4955 89.4854 59.7327 88.5635C59.8815 87.985 59.7673 87.3156 59.7407 86.7218C59.7134 86.1362 59.6861 85.5496 59.6579 84.9632Z" fill="#4B4B4B"/>
    <path fill-rule="evenodd" clip-rule="evenodd" d="M47.2776 12.5651C46.4491 9.57336 43.2825 8.26792 40.4306 8.06075C32.7089 7.25774 24.8492 11.5639 21.426 18.5466C18.6858 23.8487 18.6 29.4185 24.4902 32.4459C24.8119 32.6233 25.1479 32.813 25.4909 32.9851C25.789 33.2624 26.096 33.5288 26.431 33.7524C29.6385 35.8624 33.5752 36.775 37.3903 36.5771C43.0231 36.4635 45.034 32.6398 46.2646 27.7362C47.5624 22.8543 48.2882 17.5571 47.2776 12.5651Z" fill="white"/>
    <path fill-rule="evenodd" clip-rule="evenodd" d="M50.9751 40.7646C50.7121 39.9689 50.3824 39.1974 50.0744 38.4178C50.0092 38.0292 49.9658 37.6374 49.9546 37.2423C49.9119 35.8312 50.1758 34.408 50.4716 33.0338C51.0732 30.2413 51.711 27.4777 52.031 24.6336C52.6028 19.5466 52.2626 14.2567 49.9497 9.61294C47.9456 5.59026 44.5494 2.3005 40.1623 1.06795C38.8654 0.703417 37.5307 0.502363 36.1867 0.422071C36.0203 0.395601 35.8542 0.369695 35.6888 0.344755C33.8195 0.0628448 31.9272 -0.0776272 30.0377 0.0439383C26.9045 0.245636 23.8005 1.1464 21.191 2.92796C18.5637 4.72184 16.6969 7.23714 15.8283 10.3051C14.9246 13.4967 15.0013 16.9532 13.4408 19.9454C12.9799 20.8295 12.4418 21.6699 11.9286 22.5243C10.5669 24.0442 9.08863 25.7338 8.76469 27.8236C8.36499 30.4062 9.85039 32.5889 11.2562 34.6043C12.5268 36.4241 14.2511 38.9375 12.9434 41.1781C12.3266 42.2353 11.3382 43.0262 10.5959 43.99C9.82626 44.9908 9.22551 46.1397 8.91508 47.3674C8.33202 49.6732 8.86843 52.0764 10.4278 53.8786C11.2401 54.8166 12.2832 55.4369 13.4123 55.9205C14.568 56.4145 15.6971 56.8835 16.6525 57.7242C17.0892 58.108 17.4889 58.5288 17.8669 58.9697C18.2191 59.5208 18.6293 60.0357 19.0917 60.5071C19.6008 61.0261 20.598 60.3157 20.1308 59.705C20.0962 59.66 20.0624 59.6157 20.0278 59.5707C19.686 59.1249 19.3426 58.6792 18.9831 58.248C17.9111 56.5487 17.4985 54.4683 18.0317 52.4835C18.1701 51.9678 18.3647 51.4786 18.6068 51.0168C18.6582 51.1512 18.7145 51.2839 18.774 51.4151C19.0057 51.9235 19.3306 52.526 19.7439 53.041C19.76 53.3941 19.8132 53.7442 19.916 54.0869C20.553 56.2117 22.6826 57.26 24.603 58.0758C24.7912 58.1563 24.977 58.2335 25.1596 58.3099C25.6614 58.5198 26.1922 57.8047 25.8793 57.3734C25.7973 57.26 25.7177 57.1442 25.6421 57.0267C24.7414 55.6316 24.3127 53.963 24.5556 52.3009C24.8113 50.5429 25.8472 49.0883 26.8758 47.6925C27.8859 46.3199 28.9708 44.9192 29.4227 43.245C29.923 41.3954 29.4678 39.5514 28.6957 37.849C27.9888 36.2911 27.0471 34.8553 26.2575 33.3403C26.5279 33.6101 26.8068 33.871 27.0943 34.1227C27.4175 34.4057 27.7496 34.7296 28.1326 34.9291C28.4159 35.0766 28.6996 34.7236 28.4753 34.4849C28.1805 34.1713 27.8032 33.9289 27.4758 33.649C27.1615 33.3804 26.8563 33.101 26.5587 32.814C26.1922 32.4607 25.8436 32.0908 25.5074 31.7097C25.2384 31.0242 25.0167 30.3202 24.8363 29.6057C24.591 28.6386 24.3642 27.6096 24.3819 26.6072C24.3996 25.579 24.9336 24.8589 25.6445 24.1686C25.9456 23.8763 26.2496 23.5875 26.553 23.2981C27.1993 22.8235 27.8089 22.2933 28.4011 21.7646C29.4562 20.8224 30.4768 19.8265 31.4514 18.8014C31.7128 18.5264 31.9721 18.2484 32.2282 17.9671C33.1229 17.0486 33.9762 16.0896 34.7805 15.0975C35.5799 14.8062 36.3479 14.4209 37.0685 13.9671C36.7548 14.2849 36.438 14.5987 36.1227 14.9148C35.4206 15.6196 34.6913 16.3276 33.8773 16.902C33.7937 16.9616 33.8444 17.0879 33.9474 17.0678C34.9823 16.861 35.9506 16.5167 36.8546 15.968C37.7738 15.4096 38.5836 14.6509 39.3396 13.8899C39.7674 13.6968 40.1801 13.4482 40.5572 13.2036C40.5773 13.1907 40.5974 13.177 40.6175 13.1641C40.246 14.342 39.7008 15.6759 38.5386 16.0959C38.5008 16.1096 38.5032 16.1723 38.5482 16.1699C39.5273 16.1125 40.3142 15.6718 40.9353 15.0296C41.4349 14.6699 41.9117 14.2888 42.3666 13.8739C42.8073 13.472 43.2248 13.0409 43.6213 12.5946C43.0672 13.6927 42.4465 14.7664 41.8343 15.828C41.8021 15.8843 41.8697 15.9607 41.9276 15.9213C43.22 15.046 44.2003 13.9164 45.0021 12.5808C45.1205 12.3842 45.2335 12.1843 45.3437 11.9829C45.2605 12.2981 45.1697 12.6112 45.0725 12.9227C44.8965 13.4866 44.7231 14.0518 44.5468 14.6154C44.4517 14.9193 44.3358 15.2162 44.2087 15.5081C44.1176 15.717 43.9985 15.9254 43.98 16.1545C43.9788 16.1697 43.9953 16.1796 44.0086 16.1763C44.5239 16.0475 45.0038 15.4595 45.371 15.0953C45.5755 14.8925 45.7671 14.6699 45.9433 14.4351C45.976 15.7873 45.9986 17.1396 45.9688 18.4958C45.9134 20.9867 45.7526 23.4767 45.5466 25.9594C45.3648 28.1543 45.2305 30.4577 44.0065 32.3652C43.0591 33.8416 41.5231 34.8632 39.8543 35.3581C39.7071 35.4024 39.5592 35.4418 39.4104 35.4772C36.9945 36.0508 34.5883 35.4008 32.4522 34.2519C31.8105 33.9067 31.262 34.8431 31.8812 35.2285C34.199 36.6719 37.1368 37.1635 39.7602 36.5167C39.6775 39.6165 41.2046 42.5571 42.7238 45.1863C43.5738 46.6578 44.4247 48.1197 45.0255 49.7151C45.5353 51.0699 45.8819 52.4754 45.9986 53.9212C46.1369 55.6252 46.001 57.3389 45.7629 59.0284C45.7501 59.12 45.7372 59.2126 45.7235 59.3043C45.6704 59.6672 45.9961 59.9712 46.3492 59.7855C47.9102 58.9648 48.5833 57.2157 48.9927 55.5987C49.3755 54.0837 49.6353 52.539 49.78 50.9838C49.9923 51.5703 50.1644 52.1713 50.2979 52.7843C50.3165 52.8721 50.3341 52.9598 50.3518 53.0475C50.4531 53.56 51.2284 53.5238 51.3523 53.0475C51.3748 52.9614 51.3965 52.8753 51.4166 52.7884C52.056 50.2018 52.2281 47.5042 51.8903 44.8596C51.7126 43.4687 51.4158 42.0961 50.9751 40.7646Z" fill="#4B4B4B"/>
    <path fill-rule="evenodd" clip-rule="evenodd" d="M39.2128 30.5665C38.6722 30.3459 38.1898 29.9778 37.8371 29.5077C37.7145 29.3443 37.6828 29.1717 37.7085 29.0138C37.7374 28.8363 37.8424 28.6755 37.9855 28.5676C38.1291 28.4593 38.3087 28.4059 38.4824 28.4332C38.6333 28.4568 38.7835 28.5395 38.9024 28.7109L38.9272 28.7451C39.1369 29.0289 39.4101 29.2617 39.7214 29.4118C40.0214 29.5564 40.357 29.6239 40.7043 29.5847C41.3656 29.5099 41.8215 29.1521 42.306 28.6662C42.3661 28.6049 42.4262 28.5416 42.4866 28.4773C42.5247 28.419 42.5776 28.3816 42.6364 28.3619C42.7016 28.3401 42.7754 28.3413 42.843 28.3649C42.9082 28.3877 42.9665 28.4308 43.0056 28.4882C43.0427 28.5428 43.0638 28.6102 43.057 28.6877C43.0126 29.1913 42.7494 29.6407 42.3756 29.9936C41.9604 30.3855 41.4101 30.6566 40.892 30.7517C40.3211 30.8565 39.7395 30.7814 39.2128 30.5665ZM41.1612 22.7979C41.7685 23.1672 42.6939 24.0283 42.0406 24.9438C41.2716 25.7511 40.1643 24.8255 39.6187 24.4069C39.1128 24.0825 38.5444 24.9169 39.0138 25.2957C42.9564 28.2158 44.5564 22.8945 41.4684 22.3638C41.1284 22.3053 41.0021 22.6837 41.1612 22.7979ZM34.0961 19.4011C34.1632 18.5679 35.4316 18.3787 35.5578 19.2032C35.6708 19.9418 35.5378 20.6202 35.2053 21.2852C34.8875 21.9205 34.0889 21.6241 34.0285 21.0456C33.9475 20.2702 34.0543 19.9194 34.0961 19.4011ZM43.7519 19.0323C43.9287 18.8005 44.1841 18.6424 44.49 18.7318C45.4458 19.0112 45.1641 20.3687 44.8284 21.0294C44.646 21.3883 44.0564 21.4793 43.79 21.1633C43.3557 20.6481 43.1477 19.6192 43.6998 19.1117C43.7148 19.0854 43.7314 19.059 43.7519 19.0323ZM35.1918 15.7553L35.3428 15.7289C35.8099 15.648 36.3906 15.5704 36.721 15.9461C36.8963 16.1453 36.9566 16.5155 36.721 16.7062C36.3067 17.0417 35.8486 16.9117 35.3521 16.9401C34.9429 16.9636 34.5496 17.0313 34.1555 17.144C33.2908 17.3912 32.5862 17.8426 31.8477 18.3382C31.7508 18.4032 31.6518 18.2792 31.6981 18.1885C32.1244 17.3532 32.9506 16.667 33.7781 16.2487C34.2198 16.0255 34.7031 15.8403 35.1918 15.7553ZM42.8806 15.3811L42.9961 15.4048C44.2537 15.6677 45.8876 16.193 46.4831 17.4288C46.5058 17.6035 46.4818 17.6409 46.4623 17.6654L46.4558 17.6736C46.4398 17.6945 46.427 17.7233 46.3513 17.747C46.3302 17.742 46.309 17.7367 46.2876 17.7311C46.0146 17.6595 45.7986 17.5609 45.5895 17.4586L45.3628 17.3469C45.0998 17.2179 44.8345 17.0936 44.5532 17.0018C43.9531 16.806 43.3358 16.668 42.709 16.5944C42.5731 16.5784 42.4423 16.5325 42.3391 16.4539C42.2411 16.3793 42.1663 16.276 42.1322 16.1387C42.0879 15.9609 42.1007 15.8264 42.196 15.666C42.2676 15.5456 42.3702 15.4622 42.488 15.4142C42.608 15.3654 42.7447 15.3539 42.8806 15.3811Z" fill="#4B4B4B"/>
</svg>
