<svg width="48" height="48" viewBox="0 0 48 48" fill="none" xmlns="http://www.w3.org/2000/svg">
<g id="Connect">
<path id="Vector" d="M11 18C9.4087 18 7.88258 18.6321 6.75736 19.7574C5.63214 20.8826 5 22.4087 5 24C5 25.5913 5.63214 27.1174 6.75736 28.2426C7.88258 29.3679 9.4087 30 11 30C12.5913 30 14.1174 29.3679 15.2426 28.2426C16.3679 27.1174 17 25.5913 17 24C17 22.4087 16.3679 20.8826 15.2426 19.7574C14.1174 18.6321 12.5913 18 11 18ZM37 5C36.2121 5 35.4319 5.15519 34.7039 5.45672C33.9759 5.75825 33.3145 6.20021 32.7574 6.75736C32.2002 7.31451 31.7583 7.97595 31.4567 8.7039C31.1552 9.43185 31 10.2121 31 11C31 11.7879 31.1552 12.5681 31.4567 13.2961C31.7583 14.0241 32.2002 14.6855 32.7574 15.2426C33.3145 15.7998 33.9759 16.2417 34.7039 16.5433C35.4319 16.8448 36.2121 17 37 17C37.7879 17 38.5681 16.8448 39.2961 16.5433C40.0241 16.2417 40.6855 15.7998 41.2426 15.2426C41.7998 14.6855 42.2417 14.0241 42.5433 13.2961C42.8448 12.5681 43 11.7879 43 11C43 10.2121 42.8448 9.43185 42.5433 8.7039C42.2417 7.97595 41.7998 7.31451 41.2426 6.75736C40.6855 6.20021 40.0241 5.75825 39.2961 5.45672C38.5681 5.15519 37.7879 5 37 5ZM37 31C35.4087 31 33.8826 31.6321 32.7574 32.7574C31.6321 33.8826 31 35.4087 31 37C31 38.5913 31.6321 40.1174 32.7574 41.2426C33.8826 42.3679 35.4087 43 37 43C38.5913 43 40.1174 42.3679 41.2426 41.2426C42.3679 40.1174 43 38.5913 43 37C43 35.4087 42.3679 33.8826 41.2426 32.7574C40.1174 31.6321 38.5913 31 37 31Z" fill="#777777"/>
<path id="Vector_2" d="M38.526 12.292L35.474 9.70801L25.073 22H11V26H25.072L35.474 38.292L38.526 35.708L28.62 24L38.526 12.292Z" fill="#777777"/>
</g>
</svg>
