<svg width="124" height="124" viewBox="0 0 124 124" version="1.1" xmlns="http://www.w3.org/2000/svg"><title>lingot_chest</title><g stroke="none" stroke-width="1" fill="none" fill-rule="evenodd"><g transform="translate(12 16)"><rect fill="#FFBC00" x="41.074" y="13.018" width="19.396" height="11.343" rx="3.404"/><rect fill="#FFBC00" x="13.691" y="17.555" width="73.02" height="11.343" rx="3.404"/><path d="M16.561 24.766c-.738 0-1.337.599-1.337 1.337V60.05c0 .738.599 1.337 1.337 1.337h66.14c.737 0 1.336-.599 1.336-1.337V26.103c0-.738-.599-1.337-1.337-1.337H16.561z" stroke="#AA572A" stroke-width="5.348" fill="#864624"/><g fill="#E33535"><path d="M54.805 31.994l10.76-3.007c1.433-.4 2.97.012 4.01 1.075l7.815 7.984a4.076 4.076 0 0 1 1.025 3.906l-3.55 13.247a4.076 4.076 0 0 1-2.84 2.87l-10.76 3.007a4.076 4.076 0 0 1-4.01-1.074l-7.815-7.985a4.076 4.076 0 0 1-1.024-3.905l3.55-13.247a4.076 4.076 0 0 1 2.84-2.87z"/></g><g><path d="M48.95 24.032l-10.588-3.566a4.076 4.076 0 0 0-4.06.863l-8.223 7.564a4.076 4.076 0 0 0-1.227 3.847l2.85 13.415a4.076 4.076 0 0 0 2.687 3.015l10.588 3.566a4.076 4.076 0 0 0 4.06-.863l8.223-7.565a4.076 4.076 0 0 0 1.227-3.847l-2.851-13.414a4.076 4.076 0 0 0-2.686-3.015z" fill="#FF4B4B"/><path d="M36.967 24.627l1.773 8.343a1.3 1.3 0 0 1-1.609 1.525l-8.308-2.237a1.3 1.3 0 0 1-.549-2.204l6.534-6.106a1.3 1.3 0 0 1 2.159.68z" fill="#FFA6A6"/></g><g fill="#E33535"><path d="M53.073 39.666l-11.153.66a4.076 4.076 0 0 0-3.441 2.322l-4.79 10.094a4.076 4.076 0 0 0 .302 4.026l7.67 11.37a4.076 4.076 0 0 0 3.619 1.789l11.153-.66a4.076 4.076 0 0 0 3.442-2.321l4.79-10.094a4.076 4.076 0 0 0-.304-4.026l-7.669-11.37a4.076 4.076 0 0 0-3.62-1.79z"/></g><g><path d="M64.07 36.264l11.153.66a4.076 4.076 0 0 1 3.441 2.32l4.79 10.095a4.076 4.076 0 0 1-.303 4.026l-7.669 11.37a4.076 4.076 0 0 1-3.62 1.79l-11.153-.661a4.076 4.076 0 0 1-3.441-2.321l-4.79-10.094a4.076 4.076 0 0 1 .303-4.026l7.67-11.37a4.076 4.076 0 0 1 3.619-1.79z" fill="#FF4B4B"/><path d="M74.642 41.65l-4.77 7.071a1.3 1.3 0 0 1-2.215-.098l-4.161-7.53a1.3 1.3 0 0 1 1.204-1.926l8.93.459a1.3 1.3 0 0 1 1.012 2.024z" fill="#FFA6A6"/></g><g fill="#FF4B4B"><path d="M34.98 37.059l-11.052.615a4.076 4.076 0 0 0-3.462 2.335l-4.71 10.017a4.076 4.076 0 0 0 .309 4.014l7.68 11.385a4.076 4.076 0 0 0 3.605 1.79l11.052-.615a4.076 4.076 0 0 0 3.462-2.335l4.71-10.017a4.076 4.076 0 0 0-.309-4.014l-7.68-11.385a4.076 4.076 0 0 0-3.605-1.79z"/></g><path d="M21.564 41.801l5.424 9.238a1.3 1.3 0 0 0 2.38-.976l-2.354-9.323a1.3 1.3 0 0 0-1.296-.98l-3.07.084a1.3 1.3 0 0 0-1.084 1.957z" fill="#FFA6A6"/><path d="M1.35 28.913l1.307-2.252a2.674 2.674 0 0 1 3.644-.976l2.278 1.308a2.674 2.674 0 0 1 .981 3.662l-1.307 2.251a2.674 2.674 0 0 1-3.644.977l-2.278-1.308a2.674 2.674 0 0 1-.981-3.662zM79.269 8.04l-3.02-5.199a2.674 2.674 0 0 0-3.642-.976l-5.243 3.01a2.674 2.674 0 0 0-.981 3.661l3.019 5.199a2.674 2.674 0 0 0 3.643.976l5.243-3.01a2.674 2.674 0 0 0 .981-3.661zM99.276 50.658l-.737-1.27a2.674 2.674 0 0 0-3.643-.976l-1.29.74a2.674 2.674 0 0 0-.982 3.663l.737 1.269a2.674 2.674 0 0 0 3.644.976l1.29-.74a2.674 2.674 0 0 0 .981-3.662z" fill="#FF4B4B" opacity=".301"/><path fill="#AA572A" d="M13.691 50.49H85.57v41.97H13.691z"/><path d="M21.207 78.28H73.49" stroke="#904821" stroke-width="2.674" stroke-linecap="square"/><g><path fill="#FFBC00" d="M21.678 84.52h54.765v7.94H21.678z"/><path d="M24.621 84.52h50.02l-7.987 7.94H21.678v-5.015l2.943-2.926z" fill="#FFD300"/></g><path d="M21.207 62.4H73.49" stroke="#904821" stroke-width="2.674" stroke-linecap="square"/><g transform="translate(10.268 50.49)"><rect fill="#FFBC00" x="0" y="0" width="15.973" height="41.969" rx="2.674"/><path d="M15.973 2.786L0 18.666V2.674A2.674 2.674 0 0 1 2.674 0h10.625a2.674 2.674 0 0 1 2.674 2.674v.112zM15.973 28.218v11.077a2.674 2.674 0 0 1-2.674 2.674H2.674a2.69 2.69 0 0 1-.488-.045l13.787-13.706z" fill="#FFD300"/></g><g transform="translate(73.02 50.49)"><rect fill="#FFBC00" x="0" y="0" width="15.973" height="41.969" rx="2.674"/><path d="M15.973 19.761L0 35.641V2.674A2.674 2.674 0 0 1 2.674 0h10.625a2.674 2.674 0 0 1 2.674 2.674V19.76z" fill="#FFD300"/></g><rect fill="#FFBC00" x="38.792" y="47.088" width="21.678" height="26.089" rx="2.674"/><g transform="translate(44.496 51.625)" fill="#DB8500"><ellipse cx="5.134" cy="5.293" rx="5.134" ry="5.293"/><path d="M7.717 8.424l1.726 4.89a1.925 1.925 0 0 1-1.815 2.566H2.544a1.925 1.925 0 0 1-1.815-2.565l1.726-4.89a2.79 2.79 0 0 1 5.262 0z"/></g><ellipse fill="#F8A201" cx="18.825" cy="57.863" rx="2.852" ry="2.836"/><ellipse fill="#F8A201" cx="18.825" cy="83.952" rx="2.852" ry="2.836"/><ellipse fill="#F8A201" cx="81.577" cy="83.952" rx="2.852" ry="2.836"/><ellipse fill="#F8A201" cx="81.577" cy="57.863" rx="2.852" ry="2.836"/></g></g></svg>