<svg width="48" height="48" viewBox="0 0 48 48" fill="none" xmlns="http://www.w3.org/2000/svg">
    <path d="M38 6H10C7.791 6 6 7.791 6 10V38C6 40.209 7.791 42 10 42H38C40.209 42 42 40.209 42 38V10C42 7.791 40.209 6 38 6Z" fill="#7CB342"/>
    <path d="M42 18V29.5C40.57 32.17 37.74 34 34.5 34C30.68 34 27.45 31.48 26.37 28H21.63C20.55 31.48 17.32 34 13.5 34C10.26 34 7.43 32.17 6 29.5V18C6 16 6.99 12 9 12C10 12 10.94 13.44 11.52 14.1C11.55 13.21 11.21 10 13 10C16 10 18 18 24 18C30 18 32 10 35 10C36.79 10 36.45 13.21 36.48 14.1C37.06 13.44 38 12 39 12C41.01 12 42 16 42 18Z" fill="#AEEA00"/>
    <path d="M34.5 31C31.462 31 29 28.538 29 25.5V22.5C29 19.462 31.462 17 34.5 17C37.538 17 40 19.462 40 22.5V25.5C40 28.538 37.538 31 34.5 31Z" fill="#FAFAFA"/>
    <path d="M36 22.5V25.5C36 26.88 34.88 28 33.5 28C32.12 28 31 26.88 31 25.5V22.91C31.16 22.97 31.32 23 31.5 23C32.33 23 33 22.33 33 21.5C33 20.99 32.75 20.54 32.36 20.28C32.7 20.1 33.09 20 33.5 20C34.88 20 36 21.12 36 22.5Z" fill="#616161"/>
    <path d="M13.5 31C10.462 31 8 28.538 8 25.5V22.5C8 19.462 10.462 17 13.5 17C16.538 17 19 19.462 19 22.5V25.5C19 28.538 16.538 31 13.5 31Z" fill="#FAFAFA"/>
    <path d="M17 22.5V25.5C17 26.88 15.88 28 14.5 28C13.12 28 12 26.88 12 25.5V22.91C12.16 22.97 12.32 23 12.5 23C13.33 23 14 22.33 14 21.5C14 20.99 13.75 20.54 13.36 20.28C13.7 20.1 14.09 20 14.5 20C15.88 20 17 21.12 17 22.5Z" fill="#616161"/>
    <path d="M24 33C25.6569 33 27 31.6569 27 30C27 28.3431 25.6569 27 24 27C22.3431 27 21 28.3431 21 30C21 31.6569 22.3431 33 24 33Z" fill="#EF6C00"/>
    <path d="M24 26C21.791 26 20 27.791 20 30L24 31L28 30C28 27.791 26.209 26 24 26Z" fill="#F9A825"/>
    <path d="M24.5 29H23.5C22.948 29 22.5 28.552 22.5 28C22.5 27.448 22.948 27 23.5 27H24.5C25.052 27 25.5 27.448 25.5 28C25.5 28.552 25.052 29 24.5 29Z" fill="#FFD54F"/>
</svg>
