<svg width="48" height="48" viewBox="0 0 48 48" fill="none" xmlns="http://www.w3.org/2000/svg">
    <path d="M41 24C41 33.4 33.4 41 24 41C14.6 41 7 33.4 7 24C7 14.6 14.6 7 24 7C33.4 7 41 14.6 41 24Z" fill="white"/>
    <path d="M21 41V35.5C21 35.2 21.2 35 21.5 35C21.8 35 22 35.2 22 35.5V41H24V34.5C24 34.2 24.2 34 24.5 34C24.8 34 25 34.2 25 34.5V41H27V35.5C27 35.2 27.2 35 27.5 35C27.8 35 28 35.2 28 35.5V41H29.8C30 40.7 30 40.4 30 39.9V36C30 33.8 28.1 30.8 25.7 30.8H23.2C20.9 30.8 18.9 33.9 18.9 36V39.9C18.9 40.3 19 40.7 19.1 41H21ZM40.1 26.4C40.1 26.4 38.8 26 37.7 26H37.6C36.5 26 34.7 26.3 34.7 26.3C34.6 26.3 34.6 26.3 34.6 26.2C34.6 26.1 34.6 26.1 34.7 26.1C34.8 26.1 36.7 25.8 37.8 25.8C38.9 25.8 40.2 26.2 40.3 26.2C40.4 26.2 40.4 26.3 40.4 26.4C40.2 26.3 40.2 26.4 40.1 26.4ZM39.8 27.2C39.8 27.2 38.4 26.8 37.2 26.8C36.3 26.8 34.2 27 34.1 27C34 27 34 27 34 26.9C34 26.8 34 26.8 34.1 26.8C34.2 26.8 36.3 26.6 37.2 26.6C38.5 26.6 39.8 27 39.8 27C39.9 27 39.9 27.1 39.9 27.2C39.9 27.1 39.9 27.2 39.8 27.2ZM7.80001 26.4C7.70001 26.4 7.70001 26.4 7.70001 26.3C7.70001 26.2 7.70001 26.2 7.80001 26.1C8.60001 25.9 10.2 25.6 11.1 25.6C11.9 25.6 14.6 25.8 14.7 25.8C14.8 25.8 14.8 25.9 14.8 25.9C14.8 26 14.7 26 14.7 26C14.7 26 12 25.8 11.2 25.8C10.1 26 8.60001 26.2 7.80001 26.4ZM8.20001 27.9C8.20001 27.9 8.10001 27.9 8.10001 27.8C8.10001 27.7 8.10001 27.7 8.10001 27.6C8.20001 27.6 9.50001 26.8 11 26.6C12.3 26.4 15 26.7 15.2 26.7C15.3 26.7 15.3 26.8 15.3 26.8C15.3 26.9 15.2 26.9 15.2 26.9C15.2 26.9 12.4 26.6 11.1 26.8C9.60001 27.1 8.20001 27.9 8.20001 27.9Z" fill="#455A64" fill-opacity="0.25"/>
    <path d="M14.2 23.5C14.2 19.1 18.8 15 24.5 15C30.2 15 34.8 19 34.8 23.5C34.8 28 31.5 31 24.5 31C17.5 31 14.2 27.9 14.2 23.5Z" fill="#455A64" fill-opacity="0.25"/>
    <path d="M28.6 16.3C28.6 16.3 30.3 14 33.4 14C34.6 15.2 33.8 18.8 33.4 19.8L28.6 16.3ZM20.4 16.3C20.4 16.3 18.7 14 15.6 14C14.4 15.2 15.2 18.8 15.6 19.8L20.4 16.3ZM20.1 35.9C20.1 35.9 17.8 35.9 17.3 35.9C16.1 35.9 15 35.4 14.5 34.4C13.9 33.3 13.4 32.1 11.9 31.1C11.6 30.9 11.8 30.7 12.3 30.7C12.8 30.8 13.7 30.9 14.4 31.8C15.1 32.7 15.9 33.8 17.2 33.8C18.5 33.8 19.9 33.8 20.7 32.9L20.1 35.9Z" fill="#455A64" fill-opacity="0.25"/>
    <path d="M24 4C13 4 4 13 4 24C4 35 13 44 24 44C35 44 44 35 44 24C44 13 35 4 24 4ZM24 40C15.2 40 8 32.8 8 24C8 15.2 15.2 8 24 8C32.8 8 40 15.2 40 24C40 32.8 32.8 40 24 40Z" fill="black" fill-opacity="0.06"/>
</svg>

