<svg width="48" height="48" viewBox="0 0 48 48" fill="none" xmlns="http://www.w3.org/2000/svg">
<g id="Idea">
<path id="Vector" d="M24 2C18.6957 2 13.6086 4.10714 9.85786 7.85786C6.10714 11.6086 4 16.6957 4 22C4 27.3043 6.10714 32.3914 9.85786 36.1421C13.6086 39.8929 18.6957 42 24 42C29.3043 42 34.3914 39.8929 38.1421 36.1421C41.8929 32.3914 44 27.3043 44 22C44 16.6957 41.8929 11.6086 38.1421 7.85786C34.3914 4.10714 29.3043 2 24 2Z" fill="#FFF5D3"/>
<path id="Vector_2" d="M37 22C37 14.3 30.4 8.2 22.5 9.1C16.5 9.8 11.7 14.6 11.1 20.6C10.6 25.2 12.5 29.3 15.7 31.9C17.1 33.1 18 34.8 18 36.7V37H30V36.9C30 35.1 30.8 33.3 32.2 32.1C35.1 29.7 37 26.1 37 22Z" fill="#FFC800"/>
<path id="Vector_3" d="M30.6 20.2L27.6 18.2C27.3 18 26.8 18 26.5 18.2L24 19.8L21.6 18.2C21.3 18 20.8 18 20.5 18.2L17.5 20.2C17.3 20.4 17.1 20.6 17.1 20.9C17.1 21.2 17.1 21.5 17.3 21.7L21.1 26.4V37H23.1V26C23.1 25.8 23 25.6 22.9 25.4L19.6 21.3L21.1 20.3L23.5 21.9C23.8 22.1 24.3 22.1 24.6 21.9L27 20.3L28.5 21.3L25.2 25.4C25.1 25.6 25 25.8 25 26V37H27V26.4L30.8 21.7C31 21.5 31.1 21.2 31 20.9C30.9 20.6 30.8 20.3 30.6 20.2Z" fill="#FFF59D"/>
<path id="Vector_4" d="M24 41C23.2044 41 22.4413 41.3161 21.8787 41.8787C21.3161 42.4413 21 43.2044 21 44C21 44.7956 21.3161 45.5587 21.8787 46.1213C22.4413 46.6839 23.2044 47 24 47C24.7956 47 25.5587 46.6839 26.1213 46.1213C26.6839 45.5587 27 44.7956 27 44C27 43.2044 26.6839 42.4413 26.1213 41.8787C25.5587 41.3161 24.7956 41 24 41Z" fill="#5C6BC0"/>
<path id="Vector_5" d="M26 45H22C19.8 45 18 43.2 18 41V36H30V41C30 43.2 28.2 45 26 45Z" fill="#AFAFAF"/>
</g>
</svg>
