<svg width="36" height="36" viewBox="0 0 36 36" fill="none" xmlns="http://www.w3.org/2000/svg">
    <path d="M36 31C36 33.762 33.762 36 31 36H5C2.239 36 0 33.762 0 31V5C0 2.238 2.239 0 5 0H31C33.762 0 36 2.238 36 5V31Z" fill="black" fill-opacity="0.25"/>
    <path d="M6 13H11V30H6V13ZM8.485 11H8.457C6.965 11 6 9.888 6 8.499C6 7.08 6.995 6 8.514 6C10.035 6 10.972 7.08 11 8.499C11 9.887 10.035 11 8.485 11ZM30 30H25V20.901C25 18.703 23.775 17.203 21.808 17.203C20.307 17.203 19.495 18.215 19.101 19.193C18.957 19.543 19 20.511 19 21V30H14V13H19V15.616C19.721 14.5 20.85 13 23.738 13C27.316 13 29.999 15.25 29.999 20.274L30 30Z" fill="white"/>
</svg>
