<svg width="48" height="48" viewBox="0 0 48 48" fill="none" xmlns="http://www.w3.org/2000/svg">
<g id="Puzzle">
<path id="Vector" d="M39.1 17.0185C39.1 14.8185 37.3 13.0185 35.1 13.0185H29.1C28.4 13.0185 28 12.2185 28.4 11.6185C29 10.6185 29.3 9.4185 29 8.11849C28.6 6.11849 27.1 4.51849 25.2 4.11849C21.9 3.41849 19.1 5.9185 19.1 9.0185C19.1 10.0185 19.4 10.8185 19.8 11.6185C20.2 12.2185 19.8 13.0185 19 13.0185H13C10.8 13.0185 9 14.8185 9 17.0185V24.0185C9 24.7185 9.8 25.1185 10.4 24.7185C11.4 24.1185 12.6 23.8185 13.9 24.1185C15.9 24.5185 17.5 26.0185 17.9 27.9185C18.6 31.1185 16.1 34.0185 13 34.0185C12 34.0185 11.2 33.7185 10.4 33.3185C9.9 32.9185 9.1 33.3185 9.1 34.0185V40.0185C9.1 42.2185 10.9 44.0185 13.1 44.0185H35.1C37.3 44.0185 39.1 42.2185 39.1 40.0185V17.0185Z" fill="#58A700"/>
</g>
</svg>
