<svg width="48" height="48" viewBox="0 0 48 48" fill="none" xmlns="http://www.w3.org/2000/svg">
<g id="React Native">
<path id="Vector" d="M24 34C11.1 34 1 29.6 1 24C1 18.4 11.1 14 24 14C36.9 14 47 18.4 47 24C47 29.6 36.9 34 24 34ZM24 16C11.4 16 3 20.1 3 24C3 27.9 11.4 32 24 32C36.6 32 45 27.9 45 24C45 20.1 36.6 16 24 16Z" fill="#1CB0F6"/>
<path id="Vector_2" d="M15.1 44.6C14.1 44.6 13.3 44.4 12.5 43.9C7.60002 41.1 8.90002 30.2 15.3 19C18.3 13.8 22 9.39999 25.6 6.59999C29.5 3.59999 33 2.69999 35.4 4.09999C37.9 5.49999 38.8 8.99999 38.2 13.9C37.6 18.5 35.6 23.9 32.6 29.1C29.6 34.3 25.9 38.7 22.3 41.5C19.7 43.5 17.2 44.6 15.1 44.6ZM32.9 5.39999C31.3 5.39999 29.2 6.29999 26.9 8.09999C23.5 10.8 20 15 17.1 20C10.8 30.9 10.2 40.3 13.5 42.2C15.2 43.2 18 42.3 21.1 39.9C24.5 37.2 28 33 30.9 28C33.8 23 35.7 17.9 36.3 13.6C36.8 9.59999 36.2 6.79999 34.5 5.79999C34 5.59999 33.5 5.39999 32.9 5.39999Z" fill="#1CB0F6"/>
<path id="Vector_3" d="M33 44.6C28 44.6 20.8 38.5 15.4 29C8.89999 17.8 7.59999 6.89999 12.5 4.09999C17.4 1.29999 26.2 7.79999 32.7 19C35.7 24.2 37.7 29.6 38.3 34.2C39 39.1 38 42.5 35.5 44C34.7 44.4 33.9 44.6 33 44.6ZM13.5 5.79999C10.2 7.69999 10.8 17.1 17.1 28C23.4 38.9 31.2 44.1 34.5 42.2C36.2 41.2 36.8 38.4 36.3 34.4C35.7 30.1 33.8 25 30.9 20C24.6 9.09999 16.8 3.89999 13.5 5.79999Z" fill="#1CB0F6"/>
<path id="Vector_4" d="M24 28C26.2091 28 28 26.2091 28 24C28 21.7909 26.2091 20 24 20C21.7909 20 20 21.7909 20 24C20 26.2091 21.7909 28 24 28Z" fill="#1CB0F6"/>
</g>
</svg>
