<svg width="48" height="48" viewBox="0 0 48 48" fill="none" xmlns="http://www.w3.org/2000/svg">
<g id="Services">
<path id="Vector" d="M25.6 34.4C25.7 34 25.7 33.5 25.7 33C25.7 32.5 25.7 32.1 25.6 31.6L28.4 29.6C28.7 29.4 28.8 29 28.6 28.7L25.9 24.1C25.7 23.8 25.4 23.7 25.1 23.8L22 25.3C21.3 24.7 20.5 24.3 19.6 23.9L19.3 20.5C19.3 20.2 19 19.9 18.7 19.9H13.4C13.1 19.9 12.8 20.2 12.8 20.5L12.4 24C11.5 24.3 10.8 24.8 10 25.4L6.9 24C6.6 23.9 6.2 24 6.1 24.3L3.4 28.9C3.2 29.2 3.3 29.6 3.6 29.8L6.4 31.8C6.3 32.2 6.3 32.7 6.3 33.2C6.3 33.7 6.3 34.1 6.4 34.6L3.6 36.6C3.3 36.8 3.2 37.2 3.4 37.5L6.1 42.1C6.3 42.4 6.6 42.5 6.9 42.4L10 41C10.7 41.6 11.5 42 12.4 42.4L12.7 45.8C12.7 46.1 13 46.4 13.3 46.4H18.6C18.9 46.4 19.2 46.1 19.2 45.8L19.5 42.4C20.4 42.1 21.1 41.6 21.9 41L25 42.4C25.3 42.5 25.7 42.4 25.8 42.1L28.5 37.5C28.7 37.2 28.6 36.8 28.3 36.6L25.6 34.4ZM16 38C13.2 38 11 35.8 11 33C11 30.2 13.2 28 16 28C18.8 28 21 30.2 21 33C21 35.8 18.8 38 16 38Z" fill="#2B70C9"/>
<path id="Vector_2" d="M41.9 15.3C42 14.8 42 14.4 42 14C42 13.6 42 13.2 41.9 12.7L44.4 10.9C44.7 10.7 44.7 10.4 44.6 10.1L42.1 5.8C41.9 5.5 41.6 5.4 41.3 5.6L38.4 6.9C37.7 6.4 37 6 36.2 5.6L35.9 2.5C36 2.2 35.8 2 35.5 2H30.6C30.3 2 30 2.2 30 2.5L29.7 5.6C28.9 5.9 28.2 6.3 27.5 6.9L24.6 5.6C24.3 5.5 24 5.6 23.8 5.8L21.3 10.1C21.1 10.4 21.2 10.7 21.5 10.9L24 12.7C24 13.2 24 13.6 24 14C24 14.4 24 14.8 24.1 15.3L21.6 17.1C21.3 17.3 21.3 17.6 21.4 17.9L23.9 22.2C24.1 22.5 24.4 22.6 24.7 22.4L27.6 21.1C28.3 21.6 29 22 29.8 22.4L30.1 25.5C30.1 25.8 30.4 26 30.7 26H35.6C35.9 26 36.2 25.8 36.2 25.5L36.5 22.4C37.3 22.1 38 21.7 38.7 21.1L41.6 22.4C41.9 22.5 42.2 22.4 42.4 22.2L44.9 17.9C45.1 17.6 45 17.3 44.7 17.1L41.9 15.3ZM33 19C30.2 19 28 16.8 28 14C28 11.2 30.2 9 33 9C35.8 9 38 11.2 38 14C38 16.8 35.8 19 33 19Z" fill="#1CB0F6"/>
</g>
</svg>
