<svg width="48" height="48" viewBox="0 0 48 48" fill="none" xmlns="http://www.w3.org/2000/svg">
<g id="Synchronize">
<path id="Vector" d="M8 24C8 15.163 15.163 8 24 8C25.024 8 26.021 8.106 26.992 8.29L27.685 4.425C26.525 4.112 25.262 4.005 24 4.005C12.947 4.005 4 12.952 4 24.005C4 28.849 5.686 33.479 8.844 37.056L11.881 34.427C9.468 31.625 8 27.987 8 24ZM39.473 11.267L36.33 13.804C38.622 16.572 40 20.125 40 24C40 32.837 32.837 40 24 40C22.971 40 21.967 39.894 20.992 39.708L20.316 43.479C21.578 43.689 22.841 43.796 24 43.796C35.053 43.796 44 34.849 44 23.796C44 19.375 42.421 14.848 39.473 11.267Z" fill="#FF9600"/>
<path id="Vector_2" d="M31 7.002L44 8.688L33.296 19L31 7.002ZM17 41L4 39.314L14.704 29L17 41Z" fill="#FF6F02"/>
</g>
</svg>
