<svg width="48" height="48" viewBox="0 0 48 48" fill="none" xmlns="http://www.w3.org/2000/svg">
<g id="Terraria">
<path id="Vector" d="M26 16H22V39C22 40.658 20.657 42 19 42H18V44H30V42H29C27.343 42 26 40.658 26 39V16Z" fill="#6D4C41"/>
<path id="Vector_2" d="M30.3763 32.9305L22.5169 39.2133L23.7657 40.7755L31.6251 34.4927L30.3763 32.9305Z" fill="#6D4C41"/>
<path id="Vector_3" d="M17.7075 29.4305L16.2933 30.8448L24.1508 38.702L25.565 37.2878L17.7075 29.4305Z" fill="#6D4C41"/>
<path id="Vector_4" d="M13.7 25.392L11.301 26.812L11 27.996L12.575 28.808L12.201 29.334L11 29.991V31.501L12.651 31.37L13.402 32.421L13.326 33.472L13.925 33.668L14.299 33.996L15.199 33.406C15.199 33.406 16.774 33.865 16.625 33.669C16.476 33.473 16.324 32.684 16.324 32.684L17.224 32.749L17.525 32.027L18.726 31.962L18.352 31.305L19.553 29.465L18.954 28.349L18.9 28.132L20 27.758V26.51L19.024 26.247C19.024 26.247 19.173 25.59 18.948 25.59C18.723 25.59 17.522 25.59 17.522 25.59L17.223 25H16.472L16.098 25.657H14.973L13.7 25.392Z" fill="#FF9600"/>
<path id="Vector_5" d="M34.3 29.392L36.699 30.996L37 32.179L35.425 32.807L35.799 33.333L37 33.991V35.501L35.349 35.37L34.598 36.421L34.674 37.472L34.075 37.668L33.701 37.996L32.801 37.406C32.801 37.406 31.226 37.865 31.375 37.669C31.524 37.473 31.676 36.684 31.676 36.684L30.776 36.749L30.475 36.027L29.274 35.962L29.648 35.305L28.447 33.465L29.046 32.349L29.098 32.131L28 31.758V30.51L28.976 30.247C28.976 30.247 28.827 29.59 29.052 29.59C29.277 29.59 30.478 29.59 30.478 29.59L30.777 29H31.528L31.902 29.657H33.027L34.3 29.392Z" fill="#CE82FF"/>
<path id="Vector_6" d="M22.287 4.114L22.054 5.085H21.183L21.125 5.826L19.675 5.655L19.559 5.028L17.643 5.199L17.41 5.883L16.365 5.712L15.785 6.683L15 7L15.032 8.564L15.903 8.792L15.729 10.104L15.033 9.876L14.917 11.074H13.988L13.234 12.158V13.072L14.221 13.813L14.51 14.383L14.279 14.839L13 14.783L13.058 17.864L13.812 17.978V18.491L14.392 18.776L14.45 19.633L15.611 20.433L15.844 19.692L16.482 20.319L17.004 20.718L16.888 21.973L17.991 23L18.282 22.2L18.804 22.029L19.095 21.459L19.617 21.63L19.733 22.257L20.312 23H24L25.188 20.945L26.291 21.23L26.582 21.914L27.453 20.943L28.847 21.171L29.369 21.627L30.414 21.456C30.705 20.943 30.705 20.943 30.705 20.943L31.202 19.886L32.362 20C32.536 19.43 33 19.316 33 19.316L32.852 18.546H33.49L33.304 17.057L34 17V13L35 12.158L34.884 11.187L34.188 11.301V10.674H32.91L32.794 9.533L32.098 9.476V8.735L31.286 8.792L31.344 8.165L30.822 7.88L30.996 6.796L29.602 6.169L28.79 5.084L28.268 5.711L27.456 5.939L27.049 5.139L26.235 5.027L25.77 4.113L24.667 4.056L24.55 4.798L23.796 4.627L23.274 4L22.287 4.114Z" fill="#FF4B4B"/>
</g>
</svg>
