<svg width="22" height="27" viewBox="0 0 22 27" fill="none" xmlns="http://www.w3.org/2000/svg">
    <path d="M10.9968 25.13C10.1495 25.129 9.33017 24.8267 8.68531 24.2771C8.04044 23.7275 7.61209 22.9665 7.47681 22.13H4.47681C4.38066 22.1441 4.28296 22.1441 4.1868 22.13H1.9368C1.75437 22.1297 1.57551 22.0795 1.41956 21.9849C1.26361 21.8902 1.13652 21.7547 1.05207 21.593C0.967612 21.4313 0.928993 21.2495 0.940404 21.0675C0.951816 20.8854 1.01281 20.7099 1.1168 20.56L3.51679 17V10.38C3.5087 10.3069 3.5087 10.2331 3.51679 10.16C3.56296 8.79663 3.98161 7.47191 4.7273 6.32958C5.47299 5.18725 6.51725 4.27093 7.7468 3.68002C7.87036 2.94163 8.24967 2.27022 8.81836 1.78331C9.38706 1.2964 10.1089 1.02502 10.8575 1.01668C11.6061 1.00833 12.3338 1.26356 12.9132 1.73767C13.4926 2.21178 13.8868 2.87457 14.0268 3.61002C15.2931 4.18516 16.3729 5.10372 17.1435 6.26149C17.9142 7.41925 18.3449 8.76985 18.3868 10.16C18.3942 10.2298 18.3942 10.3002 18.3868 10.37V17.12L20.5268 20.5C20.6215 20.6515 20.6739 20.8257 20.6785 21.0043C20.6831 21.1829 20.6397 21.3595 20.553 21.5157C20.4662 21.6719 20.3391 21.8019 20.1851 21.8924C20.031 21.9829 19.8555 22.0304 19.6768 22.03H17.6768C17.584 22.0442 17.4896 22.0442 17.3968 22.03H14.4868C14.374 22.8796 13.9594 23.6603 13.3187 24.2295C12.6779 24.7986 11.8538 25.1183 10.9968 25.13Z" fill="#FFC10D"/>
    <path d="M10.9068 2.00003C11.4876 2.00003 12.0446 2.23077 12.4554 2.64147C12.8661 3.05218 13.0968 3.60921 13.0968 4.19003V4.30003C14.3595 4.73869 15.4542 5.55998 16.2284 6.64968C17.0027 7.73937 17.4181 9.04329 17.4168 10.38V17.38L19.7268 21H13.5068C13.5892 21.374 13.5867 21.7618 13.4994 22.1347C13.4121 22.5076 13.2422 22.8561 13.0023 23.1546C12.7624 23.4532 12.4586 23.6941 12.1132 23.8596C11.7679 24.0251 11.3898 24.111 11.0068 24.111C10.6238 24.111 10.2457 24.0251 9.90036 23.8596C9.555 23.6941 9.25119 23.4532 9.01129 23.1546C8.77139 22.8561 8.60153 22.5076 8.51422 22.1347C8.42691 21.7618 8.42438 21.374 8.50681 21H1.9668L4.4668 17.38V10.38C4.4731 9.07135 4.87857 7.79575 5.62906 6.72362C6.37955 5.65149 7.43933 4.83389 8.66681 4.38004V4.22004C8.6627 3.92567 8.71798 3.6335 8.82935 3.36098C8.94072 3.08847 9.10587 2.8412 9.31497 2.63397C9.52407 2.42673 9.77282 2.26379 10.0463 2.15487C10.3198 2.04594 10.6125 1.99328 10.9068 2.00003ZM10.9068 3.48953e-05C10.0062 0.00379054 9.13077 0.297629 8.41028 0.837998C7.68979 1.37837 7.16258 2.1365 6.9068 3.00003C5.64448 3.69942 4.58154 4.70939 3.81857 5.93433C3.05561 7.15928 2.61788 8.55867 2.54682 10C2.53772 10.1098 2.53772 10.2202 2.54682 10.33V16.69L0.356813 19.86C0.149773 20.1584 0.0278847 20.5076 0.0042431 20.87C-0.0193985 21.2324 0.0560764 21.5944 0.222596 21.9172C0.389116 22.2399 0.640389 22.5113 0.949434 22.702C1.25848 22.8928 1.61365 22.9958 1.97681 23H4.11679C4.24977 23.0139 4.38381 23.0139 4.51679 23H6.69681C7.01081 23.8896 7.59297 24.6599 8.3631 25.2048C9.13323 25.7497 10.0534 26.0423 10.9968 26.0423C11.9402 26.0423 12.8604 25.7497 13.6305 25.2048C14.4006 24.6599 14.9828 23.8896 15.2968 23H17.4368C17.5731 23.0141 17.7105 23.0141 17.8468 23H19.7268C20.0743 22.9928 20.4139 22.8951 20.7121 22.7166C21.0104 22.5381 21.2569 22.2849 21.4275 21.9821C21.5981 21.6793 21.6869 21.3372 21.685 20.9896C21.6831 20.6421 21.5907 20.301 21.4168 20L19.4168 16.86V10.38C19.4259 10.2702 19.4259 10.1598 19.4168 10.05C19.3576 8.57139 18.9107 7.13429 18.1209 5.88287C17.3311 4.63144 16.2261 3.60967 14.9168 2.92003C14.6464 2.06979 14.1116 1.32806 13.3904 0.802857C12.6691 0.277653 11.799 -0.00360535 10.9068 3.48953e-05Z" fill="white"/>
</svg>
