<svg width="360" height="87" viewBox="0 0 360 87" fill="none" xmlns="http://www.w3.org/2000/svg">
    <path d="M50 87C59.5478 87 68.7045 83.2072 75.4559 76.4559C82.2072 69.7045 86 60.5478 86 51C86 41.4522 82.2072 32.2955 75.4559 25.5441C68.7045 18.7928 59.5478 15 50 15C40.4522 15 31.2955 18.7928 24.5441 25.5441C17.7928 32.2955 14 41.4522 14 51C14 60.5478 17.7928 69.7045 24.5441 76.4559C31.2955 83.2072 40.4522 87 50 87V87Z" fill="#FF6464"/>
    <circle cx="34.5" cy="34.5" r="34.5" fill="#1CB0F6"/>
    <circle cx="63.5" cy="42.5" r="29.5" fill="#58CC02"/>
    <path d="M47 71.4L55.06 29.48C60.0933 29.0533 64.2333 28.84 67.48 28.84C70.72 28.84 73.3867 28.98 75.48 29.26C77.5667 29.5333 79.3167 30.0333 80.73 30.76C83.5433 32.1267 84.95 34.6867 84.95 38.44C84.95 40.6133 84.01 42.62 82.13 44.46C80.3833 46.12 78.55 47.1433 76.63 47.53C78.6767 47.87 80.4267 48.8067 81.88 50.34C83.4133 51.9667 84.18 54.0367 84.18 56.55C84.18 61.4167 82.3667 65.2667 78.74 68.1C75.1133 70.94 69.7367 72.36 62.61 72.36C57.7033 72.36 52.5 72.04 47 71.4ZM64.41 51.11L61.21 67.69C61.59 67.73 61.8233 67.75 61.91 67.75H62.49C65.9833 67.75 68.4767 66.6 69.97 64.3C71.0833 62.5067 71.64 59.9667 71.64 56.68C71.64 54.9333 71.0733 53.59 69.94 52.65C68.8133 51.71 66.97 51.1967 64.41 51.11ZM74.13 38.5C74.13 34.96 72.4233 33.19 69.01 33.19H68.44C68.2667 33.19 68.0533 33.2133 67.8 33.26L65.24 46.76H65.88C71.38 46.6333 74.13 43.88 74.13 38.5ZM114.33 60.9C115.397 61.6267 115.93 62.79 115.93 64.39C115.93 65.99 115.523 67.3033 114.71 68.33C113.897 69.35 112.83 70.2033 111.51 70.89C108.777 72.2967 105.94 73 103 73C100.053 73 97.7167 72.68 95.99 72.04C94.2633 71.4 92.8233 70.4833 91.67 69.29C89.41 67.03 88.28 63.83 88.28 59.69C88.28 53.2433 90.03 48.06 93.53 44.14C97.2833 39.9133 102.423 37.8 108.95 37.8C113.003 37.8 116.033 38.6533 118.04 40.36C119.533 41.64 120.28 43.3267 120.28 45.42C120.28 52.9267 113.793 56.68 100.82 56.68C100.653 57.7867 100.57 58.81 100.57 59.75C100.57 61.7167 101.007 63.0733 101.88 63.82C102.753 64.5667 104 64.94 105.62 64.94C107.24 64.94 108.917 64.5667 110.65 63.82C112.377 63.0733 113.603 62.1 114.33 60.9ZM101.27 53.93C104.297 53.93 106.687 52.99 108.44 51.11C110.187 49.3167 111.06 46.9933 111.06 44.14C111.06 43.1533 110.88 42.3933 110.52 41.86C110.153 41.3267 109.61 41.06 108.89 41.06C108.163 41.06 107.49 41.2 106.87 41.48C106.25 41.76 105.62 42.3667 104.98 43.3C103.4 45.4333 102.163 48.9767 101.27 53.93ZM149.53 73C144.363 73 141.78 70.9933 141.78 66.98C141.827 65.8733 142.02 64.38 142.36 62.5L143.51 56.62C144.663 51.0733 145.24 47.68 145.24 46.44C145.24 43.9667 144.513 42.73 143.06 42.73C140.627 42.73 138.77 45.9067 137.49 52.26L133.72 71.72L120.85 73L127.51 39.02L138.01 37.8L136.98 44.07C138.987 39.89 143.063 37.8 149.21 37.8C152.197 37.8 154.317 38.43 155.57 39.69C156.83 40.95 157.46 42.9867 157.46 45.8C157.46 48.4467 156.777 52.8633 155.41 59.05C154.77 61.8233 154.45 63.7333 154.45 64.78C154.45 65.82 154.74 66.64 155.32 67.24C155.893 67.84 156.607 68.18 157.46 68.26C157.033 69.7133 156.083 70.8667 154.61 71.72C153.143 72.5733 151.45 73 149.53 73ZM188.5 60.9C189.567 61.6267 190.1 62.79 190.1 64.39C190.1 65.99 189.697 67.3033 188.89 68.33C188.077 69.35 187.01 70.2033 185.69 70.89C182.957 72.2967 180.117 73 177.17 73C174.23 73 171.897 72.68 170.17 72.04C168.437 71.4 166.997 70.4833 165.85 69.29C163.583 67.03 162.45 63.83 162.45 59.69C162.45 53.2433 164.2 48.06 167.7 44.14C171.453 39.9133 176.597 37.8 183.13 37.8C187.183 37.8 190.21 38.6533 192.21 40.36C193.703 41.64 194.45 43.3267 194.45 45.42C194.45 52.9267 187.967 56.68 175 56.68C174.827 57.7867 174.74 58.81 174.74 59.75C174.74 61.7167 175.177 63.0733 176.05 63.82C176.93 64.5667 178.18 64.94 179.8 64.94C181.42 64.94 183.093 64.5667 184.82 63.82C186.547 63.0733 187.773 62.1 188.5 60.9ZM175.45 53.93C178.477 53.93 180.863 52.99 182.61 51.11C184.363 49.3167 185.24 46.9933 185.24 44.14C185.24 43.1533 185.057 42.3933 184.69 41.86C184.33 41.3267 183.787 41.06 183.06 41.06C182.333 41.06 181.663 41.2 181.05 41.48C180.43 41.76 179.8 42.3667 179.16 43.3C177.58 45.4333 176.343 48.9767 175.45 53.93ZM221.59 34.6C222.19 33.5733 222.49 32.5067 222.49 31.4C222.49 29.44 221.89 28.46 220.69 28.46C218.857 28.46 217.557 30.3367 216.79 34.09L215.83 39.08H221.65L221.27 41.96H215.25L209.49 71.72L196.57 73L202.71 41.96H198.17L198.74 39.08H203.22L204.57 34.02C205.337 30.9067 207.363 28.6267 210.65 27.18C213.037 26.1533 216.237 25.64 220.25 25.64C224.257 25.64 227.157 26.1533 228.95 27.18C230.743 28.2 231.64 29.3933 231.64 30.76C231.64 32.1267 231.107 33.2367 230.04 34.09C228.973 34.9433 227.843 35.37 226.65 35.37C224.303 35.37 222.617 35.1133 221.59 34.6ZM241.94 68.2C240.62 71.4 237.847 73 233.62 73C231.447 73 229.677 72.2533 228.31 70.76C227.157 69.44 226.58 68.1167 226.58 66.79C226.58 63.3367 227.37 58.24 228.95 51.5L231.32 39.08L244.31 37.8L240.41 58.02C239.683 61.18 239.32 63.3133 239.32 64.42C239.32 66.8533 240.193 68.1133 241.94 68.2ZM232.47 30.18C232.47 28.52 233.163 27.24 234.55 26.34C235.937 25.4467 237.633 25 239.64 25C241.647 25 243.257 25.4467 244.47 26.34C245.683 27.24 246.29 28.52 246.29 30.18C246.29 31.8467 245.62 33.1067 244.28 33.96C242.933 34.8133 241.257 35.24 239.25 35.24C237.25 35.24 235.62 34.8133 234.36 33.96C233.1 33.1067 232.47 31.8467 232.47 30.18ZM248.41 65.32C248.41 64.1667 248.707 62.14 249.3 59.24L252.69 41.96H248.92L249.17 40.04C254.29 38.5067 259.327 35.86 264.28 32.1H267.35L265.81 39.08H270.81L270.23 41.96H265.3L262.04 59.24C261.487 61.8867 261.21 63.6567 261.21 64.55C261.21 66.5967 262.103 67.8333 263.89 68.26C263.463 69.7133 262.483 70.8667 260.95 71.72C259.417 72.5733 257.56 73 255.38 73C253.207 73 251.5 72.3167 250.26 70.95C249.027 69.5833 248.41 67.7067 248.41 65.32ZM272.85 61.35C271.49 60.37 270.81 58.94 270.81 57.06C270.81 56.04 271.063 55.1133 271.57 54.28C272.083 53.4467 272.853 52.9667 273.88 52.84H286.49C287.897 52.84 288.813 52.4133 289.24 51.56C289.92 51.9467 290.41 52.5433 290.71 53.35C291.01 54.1633 291.16 54.9967 291.16 55.85C291.16 56.7033 290.83 57.5467 290.17 58.38C289.503 59.2067 288.68 59.6633 287.7 59.75H275.99C275.097 59.75 274.437 59.89 274.01 60.17C273.583 60.4433 273.197 60.8367 272.85 61.35ZM296.79 62.25C296.79 60.5833 297.003 58.6833 297.43 56.55L302.61 29.48H316.76L311.64 56.74C311.253 58.7467 311.06 60.4867 311.06 61.96C311.06 63.4333 311.37 64.5533 311.99 65.32C312.61 66.0867 313.497 66.47 314.65 66.47C315.797 66.47 316.733 66.32 317.46 66.02C318.187 65.7267 318.85 65.2167 319.45 64.49C320.597 63.0367 321.533 60.4533 322.26 56.74L327.45 29.48H337.11L331.99 56.68C330.797 62.74 328.557 66.9867 325.27 69.42C322.07 71.8067 317.313 73 311 73C306.26 73 302.633 71.9767 300.12 69.93C297.9 68.1367 296.79 65.5767 296.79 62.25ZM351.64 71.72H337.69L345.81 29.48H359.89L351.64 71.72Z" fill="#4B4B4B"/>
    <path d="M50 71.56L58.06 29.64C63.0933 29.2133 67.2333 29 70.48 29C73.72 29 76.3867 29.14 78.48 29.42C80.5667 29.6933 82.3167 30.1933 83.73 30.92C86.5433 32.2867 87.95 34.8467 87.95 38.6C87.95 40.7733 87.01 42.78 85.13 44.62C83.3833 46.28 81.55 47.3033 79.63 47.69C81.6767 48.03 83.4267 48.9667 84.88 50.5C86.4133 52.1267 87.18 54.1967 87.18 56.71C87.18 61.5767 85.3667 65.4267 81.74 68.26C78.1133 71.1 72.7367 72.52 65.61 72.52C60.7033 72.52 55.5 72.2 50 71.56ZM67.41 51.27L64.21 67.85C64.59 67.89 64.8233 67.91 64.91 67.91H65.49C68.9833 67.91 71.4767 66.76 72.97 64.46C74.0833 62.6667 74.64 60.1267 74.64 56.84C74.64 55.0933 74.0733 53.75 72.94 52.81C71.8133 51.87 69.97 51.3567 67.41 51.27ZM77.13 38.66C77.13 35.12 75.4233 33.35 72.01 33.35H71.44C71.2667 33.35 71.0533 33.3733 70.8 33.42L68.24 46.92H68.88C74.38 46.7933 77.13 44.04 77.13 38.66Z" fill="white"/>
</svg>
