<svg id="check" width="42" height="31" viewBox="0 0 42 31" fill="none" xmlns="http://www.w3.org/2000/svg">
    <path d="M39.81 1.59C38.7921 0.574486 37.4129 0.00418091 35.975 0.00418091C34.5371 0.00418091 33.158 0.574486 32.14 1.59L15.35 17.28L10.35 12.28C9.85604 11.7352 9.25654 11.2964 8.58787 10.9902C7.9192 10.6841 7.1953 10.5169 6.46009 10.4989C5.72488 10.481 4.99368 10.6125 4.31084 10.8856C3.62801 11.1587 3.00778 11.5677 2.48775 12.0877C1.96773 12.6078 1.55876 13.228 1.28565 13.9108C1.01254 14.5937 0.880982 15.3249 0.898962 16.0601C0.916942 16.7953 1.08407 17.5192 1.39023 18.1878C1.69639 18.8565 2.13519 19.456 2.68001 19.95L11.16 28.43C12.2259 29.4627 13.6429 30.0542 15.1266 30.0857C16.6104 30.1172 18.0512 29.5865 19.16 28.6L39.83 9.28001C40.3346 8.77427 40.7343 8.17395 41.0065 7.51344C41.2786 6.85294 41.4177 6.14522 41.4159 5.43085C41.414 4.71649 41.2712 4.00951 40.9956 3.35043C40.7201 2.69134 40.3172 2.09311 39.81 1.59V1.59Z" fill="#8DBC00"/>
</svg>
