<svg width="22" height="27" viewBox="0 0 22 27" fill="none" xmlns="http://www.w3.org/2000/svg">
    <path d="M11.09 25.13C10.2427 25.129 9.42334 24.8266 8.77848 24.277C8.13361 23.7274 7.70526 22.9664 7.56998 22.13H4.56998C4.47383 22.1441 4.37613 22.1441 4.27997 22.13H2.02997C1.84754 22.1297 1.66868 22.0795 1.51273 21.9848C1.35678 21.8901 1.2297 21.7546 1.14524 21.5929C1.06078 21.4312 1.02216 21.2495 1.03357 21.0674C1.04499 20.8853 1.10598 20.7099 1.20997 20.56L3.60996 17V10.38C3.60187 10.3069 3.60187 10.2331 3.60996 10.16C3.65613 8.79657 4.07478 7.47185 4.82047 6.32952C5.56616 5.18719 6.61042 4.27087 7.83997 3.67996C7.96353 2.94157 8.34284 2.27016 8.91153 1.78325C9.48023 1.29634 10.2021 1.02496 10.9507 1.01662C11.6993 1.00827 12.427 1.2635 13.0064 1.73761C13.5858 2.21172 13.98 2.87451 14.12 3.60996C15.3863 4.18509 16.466 5.10366 17.2367 6.26143C18.0074 7.41919 18.4381 8.76979 18.48 10.16C18.4874 10.2298 18.4874 10.3002 18.48 10.37V17.12L20.62 20.5C20.7147 20.6515 20.767 20.8256 20.7716 21.0042C20.7762 21.1828 20.7329 21.3594 20.6461 21.5156C20.5594 21.6718 20.4323 21.8019 20.2782 21.8923C20.1241 21.9828 19.9486 22.0303 19.77 22.03H17.77C17.6772 22.0441 17.5828 22.0441 17.49 22.03H14.58C14.4672 22.8796 14.0526 23.6602 13.4118 24.2294C12.7711 24.7986 11.9469 25.1182 11.09 25.13V25.13Z" fill="#FFC10D"/>
    <path d="M11 1.99997C11.5808 1.99997 12.1378 2.23071 12.5486 2.64141C12.9593 3.05212 13.19 3.60915 13.19 4.18997V4.29997C14.4527 4.73863 15.5474 5.55992 16.3216 6.64962C17.0959 7.73931 17.5113 9.04322 17.51 10.38V17.38L19.82 21H13.6C13.6824 21.374 13.6799 21.7617 13.5926 22.1346C13.5053 22.5075 13.3354 22.856 13.0955 23.1546C12.8556 23.4531 12.5518 23.694 12.2064 23.8595C11.8611 24.025 11.483 24.111 11.1 24.111C10.717 24.111 10.3389 24.025 9.99356 23.8595C9.6482 23.694 9.34439 23.4531 9.10449 23.1546C8.86459 22.856 8.69473 22.5075 8.60742 22.1346C8.52011 21.7617 8.51758 21.374 8.60001 21H2.06L4.56 17.38V10.38C4.5663 9.07129 4.97177 7.79568 5.72226 6.72356C6.47275 5.65143 7.53253 4.83383 8.76001 4.37997V4.21997C8.7559 3.92561 8.81118 3.63344 8.92255 3.36092C9.03392 3.0884 9.19907 2.84114 9.40817 2.6339C9.61727 2.42667 9.86602 2.26373 10.1395 2.1548C10.413 2.04588 10.7057 1.99322 11 1.99997V1.99997ZM11 -2.61399e-05C10.0994 0.0037295 9.22397 0.297568 8.50348 0.837937C7.78299 1.37831 7.25578 2.13644 7 2.99997C5.73768 3.69936 4.67474 4.70933 3.91177 5.93427C3.14881 7.15922 2.71108 8.5586 2.64002 9.99997C2.63093 10.1098 2.63093 10.2202 2.64002 10.33V16.69L0.450013 19.86C0.242973 20.1584 0.121085 20.5075 0.0974438 20.8699C0.0738022 21.2323 0.149277 21.5943 0.315797 21.9171C0.482317 22.2399 0.733589 22.5112 1.04263 22.702C1.35168 22.8927 1.70685 22.9958 2.07001 23H4.20999C4.34297 23.0138 4.47701 23.0138 4.60999 23H6.79001C7.10401 23.8896 7.68617 24.6599 8.4563 25.2048C9.22643 25.7496 10.1466 26.0422 11.09 26.0422C12.0334 26.0422 12.9536 25.7496 13.7237 25.2048C14.4938 24.6599 15.076 23.8896 15.39 23H17.53C17.6663 23.014 17.8037 23.014 17.94 23H19.82C20.1675 22.9927 20.5071 22.895 20.8053 22.7165C21.1036 22.538 21.3501 22.2849 21.5207 21.982C21.6913 21.6792 21.7801 21.3371 21.7782 20.9896C21.7763 20.642 21.6839 20.3009 21.51 20L19.51 16.86V10.38C19.5191 10.2702 19.5191 10.1598 19.51 10.05C19.4508 8.57133 19.0039 7.13423 18.2141 5.88281C17.4243 4.63138 16.3193 3.60961 15.01 2.91997C14.7396 2.06972 14.2048 1.328 13.4836 0.802796C12.7623 0.277592 11.8922 -0.00366639 11 -2.61399e-05V-2.61399e-05Z" fill="white"/>
</svg>
